<?xml version="1.0" encoding="utf-8"?>
<!-- Generator: Adobe Illustrator 19.0.0, SVG Export Plug-In . SVG Version: 6.00 Build 0)  -->
<svg version="1.1" id="Layer_1" xmlns="http://www.w3.org/2000/svg" xmlns:xlink="http://www.w3.org/1999/xlink" x="0px" y="0px"
	 viewBox="0 0 3000 3000" enable-background="new 0 0 3000 3000" xml:space="preserve">
<g>
	<rect fill="#17041A" width="3000" height="3000"/>
	<path fill="#F7921E" d="M920.438,2405.736"/>
	<path fill="#F7921E" d="M843.375,2290.6c-1.115-1.977,78.857-53.35,90.119-61.261c6.762,32.604,15.771,67.19,16.896,100.778
		c-16.896-10.869-39.424-16.793-58.574-22.723c-13.519-3.947-45.057-8.889-49.557-14.816L843.375,2290.6z"/>
	<path fill="#F7921E" d="M1068.67,2328.139c1.125-25.682,6.762-67.176,15.771-95.826c16.895,5.927,32.665,18.767,49.561,26.678
		c18.027,6.91,34.922,11.848,46.188,26.665c-15.775,12.851-41.676,12.851-60.826,21.739c-11.266,3.951-43.932,23.712-51.818,18.779
		L1068.67,2328.139z"/>
	<path fill="#F7921E" d="M971.798,2381.492c10.137-24.699,31.541-44.461,43.932-68.168c11.261,24.699,30.409,45.447,42.803,70.15
		c-25.907-2.977-68.716,3.941-87.866-2.977L971.798,2381.492z"/>
	<path fill="#F7921E" d="M2638.82,302.02c14.891-22.163,39.827-37.221,56.727-57.959c6.071,26.458,20.662,50.63,27.843,77.317
		c-24.782-8.117-68.107-9.939-85.479-20.56L2638.82,302.02z"/>
	<path fill="#F7921E" d="M793.814,2357.777c10.139,14.82,46.188,19.766,65.34,24.699c14.639,2.965,42.804,5.928,55.189,14.82
		c10.143,7.906,6.762,0,1.128,12.846c-3.377,8.895-10.138,15.807-12.39,24.699c18.023-0.99,41.68-8.893,57.449,0
		c0-7.904-5.633-16.799-6.76-25.688c19.15,6.915,43.931,2.961,64.206,3.947c22.532,0.992,47.313,2.968,68.712-1.969
		c-3.372,9.875-6.754,19.762-6.754,29.639c19.152-7.906,37.171-9.877,58.578-9.877c-4.512-4.945-20.275-19.762-16.902-26.686
		c2.252-3.943,25.908-6.912,31.541-8.891c24.781-6.914,48.438-14.82,68.713-28.646c-12.391,73.107-91.244,122.5-173.475,114.605
		c0-7.91,2.256-15.806,3.385-23.711c-10.142,4.938-28.164,1.979-37.174,7.905c-11.263,5.925-5.634,15.806-9.014,27.659
		c-52.941-3.959-91.244-15.803-137.424-39.518c-27.037-14.82-96.873-55.326-76.598-92.863h2.248V2357.777z"/>
	<path fill="#6F3A1C" d="M254.153,2171.324"/>
	<path fill="#6F3A1C" d="M281.811,2121.718c-6.131-25.985-0.228-54.512-3.949-81.004c23.531,13.532,51.179,19.261,75.635,32.136
		c-22.801,12.658-53.586,43.198-73.185,48.719L281.811,2121.718z"/>
	<path fill="#6F3A1C" d="M123.275,2206.02c16.87,6.149,49.065-10.809,67.509-17.945c13.629-6.106,38.259-20.088,53.506-20.064
		c12.848,0.525,5.498-3.935,8.393,9.788c2.431,9.197,0.955,18.752,4.299,27.294c14.08-11.293,28.717-31.488,46.718-33.437
		c-4.599-6.427-14.356-10.381-20.448-16.952c19.597-5.523,37.447-23.162,54.51-34.158c18.9-12.307,40.2-25.123,54.732-41.59
		c3.002,9.989,6.007,20,11.755,28.031c10.973-17.576,24.479-29.666,41.887-42.125c-6.547-1.397-27.987-4.268-29.276-11.862
		c-0.464-4.52,17.047-20.698,20.476-25.588c16.126-20.042,30.762-40.241,39.2-63.285c32.477,66.663-2.901,152.721-74.365,194.154
		c-4.602-6.431-7.363-14.163-11.046-21.247c-5.373,9.917-21.751,18-25.629,28.063c-5.71,11.375,4.618,16.129,8.768,27.74
		c-45.354,27.59-83.397,40.251-134.75,47.845c-30.611,3.684-110.977,11.388-116.334-30.937l1.826-1.307L123.275,2206.02z"/>
	<path fill="#F44B00" d="M1825.285,650.548"/>
	<path fill="#F44B00" d="M1748.227,535.413c-1.131-1.971,78.848-53.348,90.113-61.253c6.76,32.604,15.77,67.181,16.902,100.776
		c-16.902-10.871-39.428-16.803-58.578-22.73c-13.523-3.947-45.059-8.887-49.568-14.815L1748.227,535.413z"/>
	<path fill="#F44B00" d="M1973.514,572.952c1.133-25.682,6.76-67.176,15.77-95.824c16.898,5.928,32.67,18.77,49.564,26.676
		c18.023,6.916,34.92,11.851,46.186,26.67c-15.771,12.846-41.682,12.846-60.826,21.733c-11.266,3.951-43.934,23.721-51.818,18.775
		L1973.514,572.952z"/>
	<path fill="#F9AA2A" d="M2268.33,2702.379c-1.739-2.504,66.446-91.233,75.859-104.663c16.391,43.994,35.682,90.258,46.52,136.842
		c-20.66-11.534-45.732-14.979-67.303-19.142c-15.164-2.607-49.295-2.74-55.68-10.037L2268.33,2702.379z"/>
	<path fill="#F9AA2A" d="M2512.824,2706.473c-6.212-36.037-12.31-95.074-11.203-136.934c19.233,4.645,39.286,19.168,59.085,26.569
		c20.688,5.782,39.634,9.042,55.582,27.286c-12.664,21.279-39.543,26.826-56.846,43.311c-10.551,7.92-38.75,42.467-48.352,37.262
		L2512.824,2706.473z"/>
	<path fill="#F44B00" d="M1876.635,626.308c10.143-24.701,31.549-44.461,43.938-68.174c11.266,24.711,30.412,45.453,42.801,70.15
		c-25.906-2.965-68.709,3.957-87.855-2.965L1876.635,626.308z"/>
	<path fill="#6F3A1C" d="M1535.405,2781.822"/>
	<g>
		<path fill="#6F3A1C" d="M1412.821,2716.849c6.796,3.22,37.779-6.806,51.893-9.469c20.138-3.475,43.362-8.494,63.687-6.55
			c-16.259-29.376-40.154-56.035-61.1-81.962c-6.681,12.187-56.273,94.46-54.353,95.706L1412.821,2716.849z"/>
	</g>
	<g>
		<path fill="#6F3A1C" d="M1672.096,2603.383c13.423-16.66,37.032-28.509,45.579-47.147c-16.988-8.04-34.628-4.712-54.188-2.628
			c-18.989,0.689-39.187-3.533-57.274-1.086c4.688,29.054,17.958,67.62,28.491,91.146
			C1644.628,2641.725,1663.995,2611.668,1672.096,2603.383z"/>
	</g>
	<g>
		<path fill="#6F3A1C" d="M1635.309,2645.02c-0.201-0.443-0.402-0.9-0.604-1.352c-0.458,0.085-0.904,0.137-1.317,0.105
			L1635.309,2645.02z"/>
	</g>
	<g>
		<path fill="#6F3A1C" d="M1571.218,2736.777c-0.018-0.199-0.025-0.396-0.038-0.591c-0.486,0.082-0.973,0.161-1.441,0.22
			L1571.218,2736.777z"/>
	</g>
	<g>
		<path fill="#6F3A1C" d="M1571.18,2736.187c20.789-3.552,55.594-28.3,79.987-37.299c-22.505-16.315-49.363-26.029-70.832-42.86
			C1579.799,2682.595,1569.413,2709.753,1571.18,2736.187z"/>
	</g>
	<g>
		<path fill="#6F3A1C" d="M1371.024,2822.121l1.674,3.285c86.696,30.793,174.732,85.658,292.172,26.762
			c139.191-69.805,121.749-168.324,132.75-264.609C1708.676,2755.942,1556.76,2811.494,1371.024,2822.121z"/>
	</g>
	<path fill="#6F3A1C" d="M1132.332,310.638"/>
	<g>
		<path fill="#6F3A1C" d="M1278.837,225.599c-0.006-0.484-0.006-0.984-0.009-1.479c-0.453-0.109-0.881-0.24-1.254-0.434
			L1278.837,225.599z"/>
	</g>
	<g>
		<path fill="#6F3A1C" d="M1183.243,283.81c0.063-0.19,0.137-0.373,0.2-0.555c-0.477-0.123-0.954-0.244-1.406-0.381L1183.243,283.81
			z"/>
	</g>
	<g>
		<path fill="#6F3A1C" d="M1183.443,283.255c20.463,5.113,62.282-3.539,88.235-1.955c-14.036-23.996-34.719-43.695-47.595-67.742
			C1212.898,237.663,1192.466,258.347,1183.443,283.255z"/>
	</g>
	<g>
		<path fill="#6F3A1C" d="M965.63,281.388l0.211,3.676c66.975,63.074,125.495,148.732,256.705,142.074
			c155.518-7.898,179.188-105.115,228.002-188.834C1301.368,356.665,1139.94,346.396,965.63,281.388z"/>
	</g>
	<path fill="#F44B00" d="M641.513,797.175"/>
	<path fill="#F44B00" d="M540.688,704.214c-1.542-1.644,63.562-69.932,72.576-80.203c14.053,29.865,30.725,61.098,39.587,93.215
		c-18.782-6.518-41.846-6.946-61.649-8.173c-13.926-0.642-45.43,1.988-51.138-2.664L540.688,704.214z"/>
	<path fill="#F44B00" d="M766.255,687.594c-4.867-25.033-9.045-66.369-7.002-96.112c17.639,1.759,35.794,10.447,53.893,14.105
		c18.949,2.45,36.357,3.245,50.629,14.9c-12.207,16.083-37.149,22.157-53.523,35.222c-9.929,6.449-36.803,33.164-45.541,30.246
		L766.255,687.594z"/>
	<path fill="#F44B00" d="M685.348,761.758c4.04-26.201,20.069-50.271,26.51-76.044c16.562,21.18,39.8,36.703,57.437,57.602
		c-25.626,3.232-65.228,19.929-85.272,17.742L685.348,761.758z"/>
	<path fill="#F44B00" d="M525.049,795.252c3.524,14.668,2.028,29.143,3.663,42.855c0.675,9.717,2.38,37.53,13.692,43.253
		c13.193,6.664,25.957-9.152,38.447-19.246c7.256,9.528,10.128,21.525,15.822,31.435c9.318-16.386,13.298-34.295,22.62-50.682
		c3.521,14.675,5.79,31.052,9.311,45.721c9.674-7.999,19.354-16.006,25.25-25.911c5.055,7.24,8.856,16.201,12.66,25.146
		c24.611-28.579,28.06-27.998,59.5-7.438c3.7-12.19,7.997-28.763,17.352-38.094c14.116,3.623,26.392,13.337,36.778,22.104
		c1.811-13.152,5.188-26.676,11.698-40.963c13.827,9.337,22.97,19.814,35.242,29.527c4.617-15.249,8.923-31.813,15.114-47.437
		c12.871,5.333,24.817,13.718,36.77,22.096c-1.315-12.389,0.815-24.191,4.512-36.391c10.674,3.056,20.094,7.817,29.519,12.575
		c-3.485-7.618-4.157-17.335-1.387-26.481c25.714,3.619,53.842-10.288,54.019-37.151c-0.112-21.142-29.3-32.38-45.98-46.662
		c2.914,19.047,0.819,37.907-1.603,55.429c-7.539-3.807-16.645-7.236-25.426-9.329c-2.773,9.142-7.434,17.337-11.45,28.187
		c-9.747-6.09-22.294-10.087-34.531-12.761c-2.131,11.811-7.079,25.716-14.546,36.008c-10.986-4.38-21.333-6.098-29.516-12.571
		c-4.339,9.521-10.241,19.43-16.464,28.007c-9.746-6.093-21.375-13.144-33-20.191c-7.149,11.616-14.298,23.242-19.558,35.814
		c-9.745-6.091-20.732-10.473-30.482-16.571c-4.339,9.521-14.009,17.519-20.235,26.103c-13.189-6.673-27.948-12.951-39.899-21.34
		c-4.658,8.193-8.994,17.721-13.655,25.908c-12.872-5.331-27.632-11.618-39.58-20.001c-8.429,6.287-16.219,15.246-24.647,21.524
		C558.118,829.538,533.161,787.628,525.049,795.252L525.049,795.252z"/>
	<path fill="#F44B00" d="M2372.469,2079.665"/>
	<g>
		<path fill="#F44B00" d="M2286.391,1970.86c4.93,5.676,37.322,8.965,51.318,12.213c19.832,4.922,43.111,9.666,60.941,19.627
			c-3.064-33.438-14.219-67.459-22.961-99.623c-11.021,8.471-89.527,63.834-88.268,65.754L2286.391,1970.86z"/>
	</g>
	<g>
		<path fill="#F44B00" d="M2569.41,1971.31c18.986-9.853,45.371-11.191,60.691-24.82c-12.311-14.193-29.803-18.248-48.549-24.214
			c-17.654-7.009-34.453-19.007-51.99-24.038c-7.4,28.482-10.773,69.129-10.594,94.906
			C2528.836,1995.356,2558.654,1975.634,2569.41,1971.31z"/>
	</g>
	<g>
		<path fill="#F44B00" d="M2518.979,1994.624c-0.01-0.484-0.01-0.986-0.01-1.48c-0.459-0.107-0.883-0.238-1.254-0.434
			L2518.979,1994.624z"/>
	</g>
	<g>
		<path fill="#F44B00" d="M2423.375,2052.835c0.07-0.191,0.139-0.373,0.209-0.561c-0.479-0.117-0.961-0.238-1.412-0.375
			L2423.375,2052.835z"/>
	</g>
	<g>
		<path fill="#F44B00" d="M2423.584,2052.274c20.461,5.119,62.281-3.535,88.23-1.955c-14.033-23.99-34.715-43.693-47.596-67.738
			C2453.039,2006.687,2432.602,2027.368,2423.584,2052.274z"/>
	</g>
	<path fill="#F44B00" d="M2432.617,2083.192c-107.158,34.264-36.92,133.551,67.963,109.695
		c46.484-10.014,52.113-51.285,36.428-78.844C2517.383,2083.089,2473.867,2073.729,2432.617,2083.192L2432.617,2083.192z"/>
	<path fill="#F44B00" d="M1667.447,630.997l0.211,3.68c66.973,63.074,125.494,148.728,256.707,142.07
		c155.512-7.898,179.188-105.111,227.998-188.83C2003.186,706.276,1841.752,696.009,1667.447,630.997z"/>
	<path d="M1937.52,804.916c-5.52-12.963-12.424-42.779-2.762-50.561c9.66-7.775,38.643-6.48,51.064-9.07
		c4.141,15.551,2.762,35,6.902,50.557C1976.166,802.324,1954.08,804.916,1937.52,804.916L1937.52,804.916z"/>
	<path d="M1805.025,662.54c0,9.076-6.898,36.301-1.381,45.379c4.143,6.481,26.225,11.664,35.887,2.592
		c6.902-3.889,13.801-42.779,5.52-49.264C1838.152,656.062,1811.926,662.54,1805.025,662.54L1805.025,662.54z"/>
	<path fill="#F7921E" d="M1675.266,1874.034"/>
	<path fill="#F7921E" d="M1731.861,1869.424c18.19-19.552,45.182-30.51,65.127-48.342c1.846,27.094,12.463,53.248,15.363,80.727
		c-23.202-11.895-65.705-20.487-81.186-33.704L1731.861,1869.424z"/>
	<path fill="#F7921E" d="M1534.417,1800.168l-1.099,3.519c40.48,82.612,65.102,183.386,190.26,223.347
		c148.336,47.353,204.719-35.301,279.879-96.476C1822.161,1988.823,1674.677,1922.381,1534.417,1800.168z"/>
	<path fill="#17041A" d="M1651.787,2007.877c4.152-13.725,17.399-42.932,28.201-45.887c10.801-2.949,28.594,9.999,38.088,12.763
		c-6.564,15.457-18.977,32.111-25.545,47.568C1678.082,2021.32,1662.393,2014.619,1651.787,2007.877L1651.787,2007.877z"/>
	<path fill="#17041A" d="M1778.165,2055.41c5.921-13.059,15.206-43.756,9.024-53.1c-6.174-9.334-28.094-11.322-37.054-15.5
		c-5.249,15.953-6.89,36.658-12.135,52.613C1749.53,2048.193,1765.74,2053.491,1778.165,2055.41L1778.165,2055.41z"/>
	<path fill="#17041A" d="M1640.217,1873.665c-3.194,8.492-19.234,31.547-17.267,41.983c1.593,7.526,20.439,20.149,32.675,15.061
		c7.831-1.208,27.979-35.182,22.508-44.165C1673.504,1879.261,1646.677,1876.095,1640.217,1873.665L1640.217,1873.665z"/>
	<path fill="#17041A" d="M1826.848,1941.943c-0.478,10.075-8.742,39.772-3.741,50.281c3.771,7.522,25.416,15.001,35.476,5.683
		c7.055-3.779,15.934-46.429,8.052-54.274C1860.058,1937.333,1833.696,1942.481,1826.848,1941.943L1826.848,1941.943z"/>
	<path d="M1282.354,308.134c0,9.07-6.896,36.297-1.38,45.371c4.143,6.482,26.227,11.668,35.887,2.596
		c6.903-3.893,13.802-42.783,5.52-49.266C1315.482,301.655,1289.257,308.134,1282.354,308.134L1282.354,308.134z"/>
	<path fill="#F9AA2A" d="M210.666,2755.052"/>
	<g>
		<g>
			<path fill="#F9AA2A" d="M373.438,2708.129c0.109-0.47,0.232-0.959,0.353-1.439c-0.419-0.212-0.797-0.443-1.111-0.724
				L373.438,2708.129z"/>
		</g>
		<g>
			<path fill="#F9AA2A" d="M266.564,2741.384c0.113-0.165,0.223-0.326,0.338-0.493c-0.435-0.228-0.875-0.461-1.281-0.703
				L266.564,2741.384z"/>
		</g>
		<g>
			<path fill="#F9AA2A" d="M266.902,2740.891c18.606,9.937,61.275,11.696,86.063,19.529c-7.786-26.684-23.066-50.816-29.721-77.27
				C306.545,2703.821,281.696,2718.922,266.902,2740.891z"/>
		</g>
	</g>
	<path fill="#F9AA2A" d="M232.186,2767.693c-216.262-6.07-96.34,117.707,113.591,133.18c92.941,7.406,111.379-31.117,85.561-64.058
		C398.411,2799.067,314.763,2773.701,232.186,2767.693L232.186,2767.693z"/>
	<path fill="#6F3A1C" d="M1059.195,107.302c-74.413,62.824-28.444,141.906,47.409,126.842c9.486-1.26,43.35-13.816,39.283-25.121
		c-1.353-5.02-29.093-12.252-36.574-16.32C1070.674,171.653,1064.613,136.186,1059.195,107.302L1059.195,107.302z"/>
	<path fill="#6F3A1C" d="M1373.93,98.649c74.415,62.824,28.446,141.91-47.409,126.84c-9.486-1.254-43.35-13.816-39.279-25.117
		c1.349-5.021,29.089-12.254,36.57-16.324C1362.45,163.005,1368.513,127.536,1373.93,98.649L1373.93,98.649z"/>
	<path fill="#6F3A1C" d="M165.674,2147.973c-81.689-48.747-48.847-136.545,27.105-135.834c9.405-0.542,44.18,5.607,41.916,17.681
		c-0.56,5.276-26.431,17.759-33.09,23.251C167.21,2081.432,166.62,2118.051,165.674,2147.973L165.674,2147.973z"/>
	<path fill="#6F3A1C" d="M406.995,1971.273c-19.789-93.045-113.489-90.277-137.316-18.157c-3.545,8.727-8.941,43.627,3.217,45.381
		c5.177,1.171,25.338-19.29,32.683-23.823C343.52,1951.266,378.37,1962.518,406.995,1971.273L406.995,1971.273z"/>
	<path fill="#F9AA2A" d="M213.202,2559.384c-91.464,17.007-64.907,139.272,21.958,133.237c38.345-2.062,53.977-46.21,49.522-79.418
		C278.145,2575.523,247.385,2556.923,213.202,2559.384L213.202,2559.384z"/>
	<path fill="#F9AA2A" d="M472.298,2624.238c72.666,58.091-8.359,153.428-82.138,107.182c-32.851-19.883-25.842-66.189-6.268-93.384
		C407.41,2607.88,443.303,2605.964,472.298,2624.238L472.298,2624.238z"/>
	<path fill="#F7921E" d="M1718.871,1704.752c-72.93-0.491-56.664,83.682,12.207,90.831c30.379,3.555,44.437-23.606,42.197-46.112
		C1769.564,1723.739,1745.977,1707.51,1718.871,1704.752L1718.871,1704.752z"/>
	<path fill="#F7921E" d="M2619.66,123.191c-72.102,10.958-42.831,91.537,26.309,87.79c30.561-1.255,40.182-30.286,34.439-52.162
		C2672.705,133.989,2646.864,121.662,2619.66,123.191L2619.66,123.191z"/>
	<path fill="#F7921E" d="M2783.544,99.648c-90.521,37.739-70.536,204.958,14.935,183.283c37.699-8.721,55.213-72.94,52.488-118.772
		C2846.422,112.372,2817.185,91.002,2783.544,99.648L2783.544,99.648z"/>
	<path fill="#F7921E" d="M2816.264,405.09c-74.803-90.507-350.309-109.621-302.902-27.273
		c19.514,36.135,128.668,66.322,204.545,74.058C2803.448,459.287,2835.113,437.527,2816.264,405.09L2816.264,405.09z"/>
	<path fill="#F7921E" d="M1909.197,1776.338c55.178,47.692-12.527,100.282-69.039,60.272c-25.193-17.347-17.866-47.04-1.348-62.491
		C1858.556,1757.211,1886.99,1760.548,1909.197,1776.338L1909.197,1776.338z"/>
	<g>
		<path fill="#F7921E" d="M176.44,1182.52c2.095,6.616,26.722,18.479,36.779,25.292c14.153,9.962,31.089,20.702,42.041,34.803
			c8.226-31.911,10.23-66.559,13.55-98.827c-11.431,4.875-91.291,35.004-90.906,37.125L176.44,1182.52z"/>
	</g>
	<g>
		<path fill="#F7921E" d="M222.975,1199.693c-8.963-6.071-29.486-16.152-35.33-22.958c-6.215,2.658-10.104,4.517-10.019,4.988
			l-1.465,1.61c2.095,6.615,26.723,18.478,36.779,25.291c14.152,9.962,31.089,20.702,42.041,34.802
			c1.373-5.327,2.559-10.734,3.621-16.19C248.082,1216.582,234.593,1207.873,222.975,1199.693z"/>
	</g>
	<g>
		<path fill="#F7921E" d="M400.596,1259.833c18.189-3.998,39.527,1.919,56.014-6.58c-5.239-16.54-17.81-25.057-30.762-35.692
			c-11.764-11.315-21.252-27.024-33.551-36.471c-14.938,24.462-30.563,61.328-38.635,85.331
			C360.776,1271.161,390.697,1260.934,400.596,1259.833z"/>
	</g>
	<g>
		<path fill="#F7921E" d="M452.504,1243.717c-16.161,6.986-36.447,1.743-53.853,5.569c-8.2,0.909-30.126,8.077-41.462,7.818
			c-1.204,3.294-2.312,6.443-3.306,9.394c7.116,4.741,37.037-5.487,46.935-6.587c18.189-3.998,39.527,1.919,56.013-6.58
			C455.708,1249.784,454.23,1246.625,452.504,1243.717z"/>
	</g>
	<g>
		<path fill="#F7921E" d="M259.225,1295.471c14.585,10.313,50.486,13.634,70.552,22.152c-3.477-26.113-13.59-50.042-16.136-75.892
			C297.097,1261.095,274.31,1274.771,259.225,1295.471z"/>
	</g>
	<g>
		<path fill="#F7921E" d="M313.64,1241.734c-16.543,19.363-39.331,33.04-54.416,53.739c4.702,3.326,11.622,5.92,19.508,8.2
			c11.738-13.55,26.48-24.36,39.394-36.833C316.148,1258.583,314.478,1250.264,313.64,1241.734z"/>
	</g>
	<path fill="#F7921E" d="M86.188,1238.034c0,0,105.169,234.468,317.248,170.329c0,0-131.597,113.9-249.354-27.947
		C154.082,1380.416,88.337,1296.789,86.188,1238.034z"/>
	<g>
		<path fill="#F44B00" d="M762.394,1651.631c-11.416-3.525-36.203-7.105-44.655-12.75c-5.483,5.628-8.845,9.381-8.589,9.9
			l-0.943,2.482c4.51,6.933,34.17,10.953,46.981,14.91c18.16,6.008,39.473,11.809,55.791,23.971
			c-0.469-6.816-1.16-13.651-1.995-20.494C794.333,1661.366,777.302,1656.564,762.394,1651.631z"/>
	</g>
	<g>
		<path fill="#F44B00" d="M954.042,1661.205c15.91-9.68,38.014-11.002,50.854-24.389c-10.318-13.947-24.973-17.926-40.674-23.787
			c-14.797-6.889-28.867-18.672-43.565-23.619c-6.197,27.984-9.023,67.924-8.875,93.248
			C920.048,1684.834,945.037,1665.457,954.042,1661.205z"/>
	</g>
	<g>
		<path fill="#F44B00" d="M831.869,1713.83c17.143,5.025,52.18-3.475,73.924-1.924c-11.758-23.574-29.084-42.93-39.875-66.557
			C856.546,1669.031,839.427,1689.357,831.869,1713.83z"/>
	</g>
	<path fill="#F44B00" d="M649.558,1742.543c0,0,182.311,189.041,428.436-4.221c0,0-160.646,212.885-318.039,116.891
		C759.955,1855.213,670.644,1797.426,649.558,1742.543z"/>
	<g>
		<path fill="#6F3A1C" d="M2608.214,1128.91c6.558,35.621,15.933,71.042,27.627,105.902c1.468,4.378,5.89,7.518,10.595,6.73
			c4.359-0.728,7.512-5.127,6.041-9.509c-11.695-34.861-21.067-70.282-27.627-105.902c-0.824-4.483-6.37-7.437-10.596-6.731
			C2609.415,1120.209,2607.39,1124.439,2608.214,1128.91L2608.214,1128.91z"/>
	</g>
	<g>
		<path fill="#6F3A1C" d="M2578.374,1195.941c20.669,0.025,40.427-3.705,60.448-6.75c4.686-0.712,9.393-1.343,14.129-1.84
			c2.211-0.231,4.434-0.414,6.661-0.57c3.104-0.217,3.062-0.207,6.191-0.255c4.798-0.074,9.628,0.15,14.455,0.642
			c2.317,0.234,4.629,0.571,6.937,0.955c0.303,0.051,3.424,0.646,2.171,0.384c1.484,0.309,2.963,0.672,4.438,1.046
			c4.632,1.174,9.253-0.462,10.487-4.949c1.09-3.961-1.592-9.374-6.231-10.551c-20.714-5.257-41.094-4.389-61.294-1.474
			c-9.575,1.382-19.059,3.103-28.634,4.484c-4.92,0.711-9.866,1.31-14.844,1.768c-5.781,0.531-9.536,0.699-15.099,0.693
			c-4.67-0.007-8.592,2.729-8.533,7.493C2569.707,1191.203,2573.687,1195.937,2578.374,1195.941L2578.374,1195.941z"/>
	</g>
	<g>
		<path fill="#6F3A1C" d="M2758.113,1224.129c6.559,35.622,15.935,71.041,27.627,105.902c1.469,4.379,5.892,7.518,10.596,6.731
			c4.36-0.729,7.513-5.128,6.041-9.511c-11.692-34.862-21.066-70.282-27.626-105.902c-0.825-4.481-6.37-7.437-10.596-6.731
			C2759.315,1215.427,2757.291,1219.657,2758.113,1224.129L2758.113,1224.129z"/>
	</g>
	<g>
		<path fill="#6F3A1C" d="M2728.275,1291.159c20.669,0.025,40.427-3.705,60.447-6.749c4.686-0.714,9.392-1.343,14.129-1.84
			c2.212-0.232,4.434-0.416,6.662-0.571c3.104-0.217,3.061-0.205,6.191-0.255c4.797-0.074,9.627,0.15,14.455,0.642
			c2.316,0.236,4.628,0.571,6.937,0.955c0.303,0.051,3.425,0.646,2.171,0.384c1.484,0.309,2.963,0.672,4.437,1.046
			c4.632,1.175,9.253-0.462,10.488-4.948c1.089-3.959-1.594-9.373-6.232-10.552c-20.715-5.255-41.094-4.387-61.294-1.473
			c-9.574,1.382-19.058,3.102-28.634,4.485c-4.919,0.709-9.867,1.31-14.845,1.767c-5.779,0.53-9.535,0.699-15.098,0.692
			c-4.669-0.007-8.591,2.729-8.533,7.493C2719.608,1286.421,2723.588,1291.154,2728.275,1291.159L2728.275,1291.159z"/>
	</g>
	<path fill="#6F3A1C" d="M2597.939,1314.354c21.801-15.415,50.463-20.616,73.635-33.984c-3.739,26.888,1.297,54.668-1.486,82.164
		c-20.273-16.403-60.115-33.52-72.572-49.627L2597.939,1314.354z"/>
	<path fill="#F9AA2A" d="M2413.937,2763.442c4.935-26.24,21.904-49.918,29.247-75.642c16.021,21.915,38.967,38.365,56.098,60.051
		c-25.975,2.323-66.5,17.748-86.655,14.846L2413.937,2763.442z"/>
	<path fill="#6F3A1C" d="M2448.575,1232.213c3.142,34.478,66.178,71.924,94.152,93.595c38.095,29.397,80.934,59.209,122.542,80.445
		c45.179,23.503,97.441,41.11,145.504,49.557c-8.192,20.781-70.985,30.265-95.285,31.717c-33.187,2.304-76.492-3.118-110.937-14.605
		c-0.67-14.716,5.186-29.188,5.104-44.832c-17.188,0.775-33.722,13.659-49.708,17.796c-0.682-17.325,3.381-34.234,2.698-51.557
		c-18.377,0.018-52.073,18.891-69.315,9.237c-13.673-7.388-30.489-49.253-37.078-62.535
		C2440.665,1307.745,2429.743,1259.23,2448.575,1232.213"/>
	<path fill="#F9AA2A" d="M114.037,196.626c56.099,78.039,233.026,85.843,325.806,40.971
		c-36.681,83.892-120.829,179.491-230.869,161.931C114.037,381.969,55.78,272.714,114.037,196.626"/>
	<path fill="#F9AA2A" d="M117.664,101.418c56.099-27.314,114.355,33.167,161.824,50.726
		C301.064,62.398,165.131,31.182,117.664,101.418"/>
	<path fill="#F9AA2A" d="M467.885,196.646c-27.847-51.818-114.218-33.555-164.08-44.407
		C344.335,68.026,474.794,114.572,467.885,196.646"/>
	<path fill="#F9AA2A" d="M201.608,202.21c16.226-4.764,32.452-11.314,48.679-16.674c11.357-3.573,21.904-11.314,31.641-6.55
		c20.282,8.933,34.074,35.73,47.055,50.021c-21.094-3.573-43.811-13.101-66.526-16.673
		C242.984,209.355,221.08,204.591,201.608,202.21"/>
	<path d="M184.969,228.521c-4.382,9.075-10.956,34.283-17.53,39.324c-6.574,5.042-17.53-1.008-28.487-4.033
		c-14.242-5.042-17.529-2.017-13.147-17.142c3.287-11.091,13.147-23.191,19.722-32.266L184.969,228.521z"/>
	<path d="M228.466,415.395c-1.5-11.999-6-44.997,3-53.997c7.5-6,44.998-3,53.997-3c-1.5,19.499-7.499,43.498-13.499,62.997
		c-9-3-19.499-6-28.499-4.5L228.466,415.395z"/>
	<path fill="#F9AA2A" d="M2322.91,2926.99c-25.51,5.091-90.118-28.673-79.004-57.555c7.33-23.681,71.22-29.767,94.407-34.396
		c66.822-15.558,136.39-29.442,205.103-47.601c36.676-9.542,161.417-61.102,183.245-12.134
		c28.173,56.59-104.002,82.972-144.89,95.575C2499.145,2891.815,2409.373,2925.287,2322.91,2926.99"/>
	<path d="M2306.036,2830.373c4.691,23.506,2.426,48.398,34.464,39.781c29.72-8.154,17.46-21.26,17.405-45.688
		C2347.776,2822.043,2314.886,2826.386,2306.036,2830.373"/>
	<path d="M2439.293,2803.777c4.691,23.503,2.426,48.396,34.465,39.78c29.719-8.154,17.458-21.26,17.402-45.688
		C2481.033,2795.446,2448.143,2799.788,2439.293,2803.777"/>
	<path d="M2391.559,2925.3c-4.69-23.504-16.338-45.62,16.551-49.962c30.573-3.881,24.281,12.928,33.612,35.508
		C2433.297,2916.969,2401.26,2925.585,2391.559,2925.3"/>
	<path d="M2549.522,2889.385c-4.69-23.506-16.339-45.621,16.553-49.965c30.571-3.878,24.282,12.93,33.61,35.508
		C2591.264,2881.053,2559.225,2889.67,2549.522,2889.385"/>
	<path d="M2577.99,2762.979c4.693,23.504,2.428,48.397,34.467,39.781c29.719-8.154,17.457-21.26,17.403-45.691
		C2619.73,2754.648,2586.842,2758.99,2577.99,2762.979"/>
	<path d="M2619.631,314.009c0.47,8.477-4.234,23.343-7.205,31.114c-2.021,4.475-4.307,8.895-5.004,13.64
		c-1.038,9.1,15.42,12.241,23.443,14.817c5.422,1.809,14.148,4.996,18.771,1.287c4.622-3.708,4.728-12.3,5.827-17.661
		c1.373-6.703,3.934-12.463,6.631-18.894c1.848-4.976,4.343-7.723-1.955-10.643c-7.046-3.307-14.851-5.605-22.746-7.457
		C2631.085,318.685,2625.628,315.704,2619.631,314.009"/>
	<path fill="#17041A" d="M2547.373,372.694c0.47,8.477-4.233,23.343-7.205,31.113c-2.021,4.475-4.306,8.895-5.004,13.64
		c-1.037,9.1,15.421,12.241,23.444,14.817c5.421,1.809,14.147,4.996,18.771,1.287c4.621-3.708,4.727-12.3,5.826-17.661
		c1.374-6.702,3.935-12.463,6.632-18.894c1.847-4.976,4.343-7.723-1.955-10.643c-7.046-3.307-14.851-5.605-22.746-7.456
		C2558.828,377.37,2553.37,374.389,2547.373,372.694"/>
	<path fill="#17041A" d="M2707.289,410.58c0.469,8.477-4.233,23.343-7.206,31.114c-2.021,4.474-4.306,8.895-5.003,13.64
		c-1.039,9.1,15.42,12.241,23.443,14.817c5.423,1.809,14.147,4.996,18.77,1.287c4.623-3.708,4.729-12.3,5.828-17.661
		c1.374-6.702,3.934-12.463,6.631-18.894c1.848-4.976,4.342-7.723-1.955-10.644c-7.046-3.306-14.85-5.604-22.746-7.456
		C2718.743,415.256,2713.285,412.275,2707.289,410.58"/>
	<path d="M2673.42,325.036c0.468,8.477-4.234,23.343-7.207,31.113c-2.02,4.475-4.306,8.895-5.002,13.641
		c-1.039,9.1,15.42,12.241,23.443,14.816c5.422,1.81,14.146,4.996,18.77,1.287c4.621-3.708,4.729-12.3,5.827-17.661
		c1.374-6.702,3.935-12.462,6.632-18.894c1.848-4.976,4.342-7.723-1.956-10.644c-7.046-3.307-14.851-5.604-22.745-7.456
		C2684.874,329.712,2679.416,326.73,2673.42,325.036"/>
	<path fill="#F9AA2A" d="M1260.679,1208.579c109.827-94.145,231.932-48.799,261.265,19.839
		c21.798,49.362-9.776,121.912-45.115,154.914c-17.424-48.319-30.474-95.598-72.263-130.39
		C1370.515,1224.593,1307.39,1190.246,1260.679,1208.579"/>
	<path fill="#F9AA2A" d="M1432.992,1003.354c0.408-2.232,94.738,9.456,108.455,10.581c-15.665,29.383-30.87,61.728-51.496,88.26
		c-6.031-19.164-19.553-38.13-30.477-54.94c-7.864-11.684-28.939-35.66-28.605-43.095L1432.992,1003.354z"/>
	<path fill="#F9AA2A" d="M1567.608,1178.734c17.296-19.017,48.178-47.299,73.434-63.553c9.191,15.364,13.096,35.322,21.019,52.213
		c9.433,16.845,19.257,31.449,18.435,50.044c-20.346-0.218-40.251-16.79-60.655-22.211c-11.187-4.172-48.934-9.886-51.839-18.723
		L1567.608,1178.734z"/>
	<path fill="#F9AA2A" d="M1479.636,1132.277c20.205-8.425,46.585-6.66,68.023-13.042c-3.759,22.115,0.528,46.892-2.362,69.734
		c-18.414-18.373-54.79-41.588-66.031-58.017L1479.636,1132.277z"/>
	<path fill="#FA941C" d="M771.615,1193.479c0,0,46.238-61.256,119.105,0C890.72,1193.479,816.451,1246.187,771.615,1193.479z"/>
	<path fill="#FA941C" d="M927.156,1182.08c0,0,5.602-81.198,93.881-71.227C1021.037,1110.854,1015.435,1179.232,927.156,1182.08z"/>
	<path fill="#17041A" d="M851.486,1190.627c0,14.163-10.352,25.645-23.121,25.645c-12.77,0-23.123-11.481-23.123-25.645
		c0-14.16,10.353-25.639,23.123-25.639C841.134,1164.988,851.486,1176.467,851.486,1190.627z"/>
	<path fill="#17041A" d="M996.982,1135c4.881,12.846-0.717,26.904-12.502,31.396c-11.785,4.492-25.293-2.283-30.176-15.131
		c-4.879-12.85,0.719-26.906,12.502-31.396C978.593,1115.372,992.103,1122.15,996.982,1135z"/>
	<path fill="#FA941C" d="M1876.972,181.896c0,0,66.573-38.186,109.543,46.759C1986.515,228.655,1897.516,247.975,1876.972,181.896z"
		/>
	<path fill="#FA941C" d="M2024.5,232.476c0,0,37.029-72.48,114.306-28.652C2138.806,203.824,2106.81,264.514,2024.5,232.476z"/>
	<path fill="#17041A" d="M1951.55,210.63c-5.561,13.026-19.589,19.522-31.333,14.509s-16.759-19.637-11.199-32.664
		c5.56-13.023,19.588-19.516,31.332-14.502C1952.095,182.986,1957.108,197.606,1951.55,210.63z"/>
	<path fill="#17041A" d="M2107.203,216.588c-0.555,13.73-11.222,24.463-23.824,23.968c-12.603-0.495-22.366-12.029-21.813-25.762
		c0.557-13.733,11.224-24.464,23.823-23.968C2097.996,191.317,2107.76,202.855,2107.203,216.588z"/>
	<path fill="#FA941C" d="M1905.069,1435.826c0,0,31.565-69.955,116.163-26.308
		C2021.232,1409.518,1960.44,1477.329,1905.069,1435.826z"/>
	<path fill="#FA941C" d="M2054.251,1390.354c0,0-12.472-80.431,75.829-90.204C2130.08,1300.149,2139.721,1368.077,2054.251,1390.354
		z"/>
	
		<ellipse transform="matrix(0.9753 -0.2209 0.2209 0.9753 -265.3651 467.9803)" fill="#17041A" cx="1959.787" cy="1420.511" rx="23.122" ry="25.644"/>
	<path fill="#17041A" d="M2111.953,1329.012c7.597,11.451,5.243,26.398-5.259,33.383c-10.501,6.984-25.173,3.36-32.772-8.092
		c-7.597-11.455-5.242-26.401,5.258-33.382C2089.684,1313.931,2104.355,1317.558,2111.953,1329.012z"/>
	<path fill="#FA941C" d="M752.929,2765.146c0,0,75.249-15.089,89.046,79.101C841.975,2844.246,751.445,2834.328,752.929,2765.146z"
		/>
	<path fill="#FA941C" d="M876.785,2859.922c0,0,58.114-56.986,117.491,9.098C994.276,2869.02,944.676,2916.421,876.785,2859.922z"/>
	<path fill="#17041A" d="M814.536,2816.058c-9.406,10.588-24.771,12.298-34.317,3.817c-9.546-8.48-9.662-23.94-0.257-34.529
		c9.405-10.586,24.769-12.293,34.315-3.812C823.824,2790.016,823.94,2805.471,814.536,2816.058z"/>
	<path fill="#17041A" d="M960.256,2871.096c-4.883,12.845-18.404,19.639-30.198,15.17c-11.794-4.467-17.393-18.505-12.512-31.352
		c4.887-12.848,18.407-19.64,30.198-15.171C959.544,2844.209,965.142,2858.248,960.256,2871.096z"/>
	<path fill="#FA941C" d="M1999.742,2419.075c0,0,43.332-63.344,118.977-5.551
		C2118.719,2413.524,2046.986,2469.637,1999.742,2419.075z"/>
	<path fill="#FA941C" d="M2154.583,2400.439c0,0,1.812-81.371,90.46-75.524C2245.043,2324.915,2242.634,2393.481,2154.583,2400.439z
		"/>
	<path fill="#17041A" d="M2079.394,2412.504c0.659,14.147-9.146,26.1-21.901,26.695c-12.754,0.594-23.632-10.393-24.293-24.539
		c-0.66-14.145,9.147-26.095,21.903-26.689C2067.859,2387.376,2078.733,2398.359,2079.394,2412.504z"/>
	<path fill="#17041A" d="M2222.139,2350.156c5.474,12.604,0.537,26.909-11.025,31.945c-11.562,5.037-25.372-1.103-30.848-13.707
		c-5.473-12.609-0.536-26.912,11.024-31.945C2202.855,2331.406,2216.666,2337.547,2222.139,2350.156z"/>
	<path fill="#FA941C" d="M2490.098,728.455c0,0,76.682-3.139,75.584,92.05C2565.682,820.505,2477.814,796.555,2490.098,728.455z"/>
	<path fill="#FA941C" d="M2597.613,841.43c0,0,66.309-47.199,114.623,27.355C2712.236,868.785,2655.835,907.849,2597.613,841.43z"/>
	<path fill="#17041A" d="M2542.987,788.373c-10.946,8.987-26.389,8.274-34.493-1.595c-8.102-9.868-5.799-25.156,5.146-34.144
		c10.943-8.986,26.386-8.269,34.489,1.6C2556.233,764.104,2553.931,779.387,2542.987,788.373z"/>
	<path fill="#17041A" d="M2678.311,865.517c-6.831,11.923-21.25,16.519-32.199,10.262c-10.95-6.256-14.286-20.997-7.457-32.922
		c6.836-11.926,21.252-16.52,32.199-10.263C2681.811,838.849,2685.146,853.591,2678.311,865.517z"/>
	<path fill="#FA941C" d="M147.804,606.088c0,0,71.176,28.704,30.994,115.002C178.798,721.09,108.579,663.095,147.804,606.088z"/>
	<path fill="#FA941C" d="M199.286,753.304c0,0,79.859-15.721,93.202,72.112C292.488,825.416,225.007,837.8,199.286,753.304z"/>
	<path fill="#17041A" d="M171.342,682.465c-13.675,3.684-27.455-3.322-30.779-15.652c-3.321-12.328,5.07-25.313,18.744-28.999
		c13.672-3.685,27.451,3.324,30.773,15.654C193.403,665.799,185.014,678.78,171.342,682.465z"/>
	<path fill="#17041A" d="M262.915,808.473c-11.133,8.054-26.166,6.308-33.569-3.902c-7.404-10.208-4.377-25.016,6.756-33.073
		c11.139-8.055,26.168-6.308,33.569,3.901C277.081,785.609,274.053,800.417,262.915,808.473z"/>
	<path fill="#FA941C" d="M2804.605,2320.475c0,0-26.813-71.909,64.002-100.449
		C2868.607,2220.025,2873.15,2310.984,2804.605,2320.475z"/>
	<path fill="#FA941C" d="M2878.571,2183.172c0,0-65.47-48.355-9.622-117.447C2868.949,2065.725,2923.606,2107.191,2878.571,2183.172
		z"/>
	<path fill="#17041A" d="M2845.119,2251.583c11.943,7.61,16.066,22.51,9.205,33.28c-6.862,10.767-22.108,13.33-34.053,5.722
		c-11.942-7.61-16.061-22.509-9.199-33.278C2817.936,2246.534,2833.178,2243.974,2845.119,2251.583z"/>
	<path fill="#17041A" d="M2876.386,2098.984c13.456,2.788,22.306,15.064,19.763,27.416c-2.544,12.353-15.518,20.104-28.976,17.32
		c-13.46-2.791-22.306-15.066-19.763-27.416C2849.951,2103.947,2862.928,2096.195,2876.386,2098.984z"/>
</g>
<g>
</g>
<g>
</g>
<g>
</g>
<g>
</g>
<g>
</g>
<g>
</g>
</svg>
