<?xml version="1.0" encoding="UTF-8" standalone="no"?>
<!-- Created with Inkscape (http://www.inkscape.org/) -->

<svg
   version="1.1"
   id="svg2"
   xml:space="preserve"
   width="2560"
   height="1440"
   viewBox="0 0 2560 1440"
   sodipodi:docname="background-1789175.ai"
   xmlns:inkscape="http://www.inkscape.org/namespaces/inkscape"
   xmlns:sodipodi="http://sodipodi.sourceforge.net/DTD/sodipodi-0.dtd"
   xmlns="http://www.w3.org/2000/svg"
   xmlns:svg="http://www.w3.org/2000/svg"><defs
     id="defs6"><clipPath
       clipPathUnits="userSpaceOnUse"
       id="clipPath22"><path
         d="M 0,1080 H 1920 V 0 H 0 Z"
         id="path20" /></clipPath><pattern
       patternTransform="translate(-88.1138,302.0337)"
       patternUnits="userSpaceOnUse"
       x="0"
       y="0"
       width="114.417"
       height="114.418"
       id="pattern44"><path
         d="M 114.417,0 0,0 l 0,114.418 114.417,0 0,-114.418 z"
         style="fill:#f60261;fill-opacity:1;fill-rule:nonzero;stroke:none"
         id="path42" /></pattern><pattern
       patternTransform="translate(-88.1138,302.0337)"
       patternUnits="userSpaceOnUse"
       x="0"
       y="0"
       width="114.417"
       height="114.418"
       id="pattern52"><path
         d="M 114.417,0 0,0 l 0,114.418 114.417,0 0,-114.418 z"
         style="fill:#f60261;fill-opacity:1;fill-rule:nonzero;stroke:none"
         id="path50" /></pattern><pattern
       patternTransform="translate(-88.1138,302.0337)"
       patternUnits="userSpaceOnUse"
       x="0"
       y="0"
       width="114.417"
       height="114.418"
       id="pattern64"><path
         d="M 114.417,0 0,0 l 0,114.418 114.417,0 0,-114.418 z"
         style="fill:#00ebea;fill-opacity:1;fill-rule:nonzero;stroke:none"
         id="path62" /></pattern><pattern
       patternTransform="translate(-88.1138,302.0337)"
       patternUnits="userSpaceOnUse"
       x="0"
       y="0"
       width="114.417"
       height="114.418"
       id="pattern88"><path
         d="M 114.417,0 0,0 l 0,114.418 114.417,0 0,-114.418 z"
         style="fill:#00ebea;fill-opacity:1;fill-rule:nonzero;stroke:none"
         id="path86" /></pattern><pattern
       patternTransform="translate(-88.1138,302.0337)"
       patternUnits="userSpaceOnUse"
       x="0"
       y="0"
       width="114.417"
       height="114.418"
       id="pattern96"><path
         d="M 114.417,0 0,0 l 0,114.418 114.417,0 0,-114.418 z"
         style="fill:#00ebea;fill-opacity:1;fill-rule:nonzero;stroke:none"
         id="path94" /></pattern><pattern
       patternTransform="translate(-88.1138,302.0337)"
       patternUnits="userSpaceOnUse"
       x="0"
       y="0"
       width="114.417"
       height="114.418"
       id="pattern112"><path
         d="M 114.417,0 0,0 l 0,114.418 114.417,0 0,-114.418 z"
         style="fill:#00ebea;fill-opacity:1;fill-rule:nonzero;stroke:none"
         id="path110" /></pattern><pattern
       patternTransform="translate(-88.1138,302.0337)"
       patternUnits="userSpaceOnUse"
       x="0"
       y="0"
       width="114.417"
       height="114.418"
       id="pattern144"><path
         d="M 114.417,0 0,0 l 0,114.418 114.417,0 0,-114.418 z"
         style="fill:#00ebea;fill-opacity:1;fill-rule:nonzero;stroke:none"
         id="path142" /></pattern><pattern
       patternTransform="translate(-88.1138,302.0337)"
       patternUnits="userSpaceOnUse"
       x="0"
       y="0"
       width="114.417"
       height="114.418"
       id="pattern168"><path
         d="M 114.417,0 0,0 l 0,114.418 114.417,0 0,-114.418 z"
         style="fill:#f60261;fill-opacity:1;fill-rule:nonzero;stroke:none"
         id="path166" /></pattern><pattern
       patternTransform="translate(-88.1138,302.0337)"
       patternUnits="userSpaceOnUse"
       x="0"
       y="0"
       width="114.417"
       height="114.418"
       id="pattern180"><path
         d="M 114.417,0 0,0 l 0,114.418 114.417,0 0,-114.418 z"
         style="fill:#f60261;fill-opacity:1;fill-rule:nonzero;stroke:none"
         id="path178" /></pattern><pattern
       patternTransform="translate(-88.1138,302.0337)"
       patternUnits="userSpaceOnUse"
       x="0"
       y="0"
       width="114.417"
       height="114.418"
       id="pattern188"><path
         d="M 114.417,0 0,0 l 0,114.418 114.417,0 0,-114.418 z"
         style="fill:#f60261;fill-opacity:1;fill-rule:nonzero;stroke:none"
         id="path186" /></pattern><pattern
       patternTransform="translate(-88.1138,302.0337)"
       patternUnits="userSpaceOnUse"
       x="0"
       y="0"
       width="114.417"
       height="114.418"
       id="pattern200"><path
         d="M 114.417,0 0,0 l 0,114.418 114.417,0 0,-114.418 z"
         style="fill:#f60261;fill-opacity:1;fill-rule:nonzero;stroke:none"
         id="path198" /></pattern><pattern
       patternTransform="translate(-88.1138,302.0337)"
       patternUnits="userSpaceOnUse"
       x="0"
       y="0"
       width="114.417"
       height="114.418"
       id="pattern220"><path
         d="M 114.417,0 0,0 l 0,114.418 114.417,0 0,-114.418 z"
         style="fill:#00ebea;fill-opacity:1;fill-rule:nonzero;stroke:none"
         id="path218" /></pattern><pattern
       patternTransform="translate(-88.1138,302.0337)"
       patternUnits="userSpaceOnUse"
       x="0"
       y="0"
       width="114.417"
       height="114.418"
       id="pattern228"><path
         d="M 114.417,0 0,0 l 0,114.418 114.417,0 0,-114.418 z"
         style="fill:#00ebea;fill-opacity:1;fill-rule:nonzero;stroke:none"
         id="path226" /></pattern><pattern
       patternTransform="translate(-88.1138,302.0337)"
       patternUnits="userSpaceOnUse"
       x="0"
       y="0"
       width="114.417"
       height="114.418"
       id="pattern236"><path
         d="M 114.417,0 0,0 l 0,114.418 114.417,0 0,-114.418 z"
         style="fill:#00ebea;fill-opacity:1;fill-rule:nonzero;stroke:none"
         id="path234" /></pattern><pattern
       patternTransform="translate(-88.1138,302.0337)"
       patternUnits="userSpaceOnUse"
       x="0"
       y="0"
       width="114.417"
       height="114.418"
       id="pattern252"><path
         d="M 114.417,0 0,0 l 0,114.418 114.417,0 0,-114.418 z"
         style="fill:#f60261;fill-opacity:1;fill-rule:nonzero;stroke:none"
         id="path250" /></pattern><pattern
       patternTransform="translate(-88.1138,302.0337)"
       patternUnits="userSpaceOnUse"
       x="0"
       y="0"
       width="114.417"
       height="114.418"
       id="pattern264"><path
         d="M 114.417,0 0,0 l 0,114.418 114.417,0 0,-114.418 z"
         style="fill:#f60261;fill-opacity:1;fill-rule:nonzero;stroke:none"
         id="path262" /></pattern><pattern
       patternTransform="translate(-88.1138,302.0337)"
       patternUnits="userSpaceOnUse"
       x="0"
       y="0"
       width="114.417"
       height="114.418"
       id="pattern272"><path
         d="M 114.417,0 0,0 l 0,114.418 114.417,0 0,-114.418 z"
         style="fill:#00ebea;fill-opacity:1;fill-rule:nonzero;stroke:none"
         id="path270" /></pattern><pattern
       patternTransform="translate(-88.1138,302.0337)"
       patternUnits="userSpaceOnUse"
       x="0"
       y="0"
       width="114.417"
       height="114.418"
       id="pattern280"><path
         d="M 114.417,0 0,0 l 0,114.418 114.417,0 0,-114.418 z"
         style="fill:#00ebea;fill-opacity:1;fill-rule:nonzero;stroke:none"
         id="path278" /></pattern><pattern
       patternTransform="translate(-88.1138,302.0337)"
       patternUnits="userSpaceOnUse"
       x="0"
       y="0"
       width="114.417"
       height="114.418"
       id="pattern288"><path
         d="M 114.417,0 0,0 l 0,114.418 114.417,0 0,-114.418 z"
         style="fill:#00ebea;fill-opacity:1;fill-rule:nonzero;stroke:none"
         id="path286" /></pattern><pattern
       patternTransform="translate(-88.1138,302.0337)"
       patternUnits="userSpaceOnUse"
       x="0"
       y="0"
       width="114.417"
       height="114.418"
       id="pattern316"><path
         d="M 114.417,0 0,0 l 0,114.418 114.417,0 0,-114.418 z"
         style="fill:#f60261;fill-opacity:1;fill-rule:nonzero;stroke:none"
         id="path314" /></pattern><pattern
       patternTransform="translate(-88.1138,302.0337)"
       patternUnits="userSpaceOnUse"
       x="0"
       y="0"
       width="114.417"
       height="114.418"
       id="pattern324"><path
         d="M 114.417,0 0,0 l 0,114.418 114.417,0 0,-114.418 z"
         style="fill:#00ebea;fill-opacity:1;fill-rule:nonzero;stroke:none"
         id="path322" /></pattern><pattern
       patternTransform="translate(-88.1138,302.0337)"
       patternUnits="userSpaceOnUse"
       x="0"
       y="0"
       width="114.417"
       height="114.418"
       id="pattern332"><path
         d="M 114.417,0 0,0 l 0,114.418 114.417,0 0,-114.418 z"
         style="fill:#f60261;fill-opacity:1;fill-rule:nonzero;stroke:none"
         id="path330" /></pattern><pattern
       patternTransform="translate(-88.1138,302.0337)"
       patternUnits="userSpaceOnUse"
       x="0"
       y="0"
       width="114.417"
       height="114.418"
       id="pattern340"><path
         d="M 114.417,0 0,0 l 0,114.418 114.417,0 0,-114.418 z"
         style="fill:#f60261;fill-opacity:1;fill-rule:nonzero;stroke:none"
         id="path338" /></pattern><pattern
       patternTransform="translate(-88.1138,302.0337)"
       patternUnits="userSpaceOnUse"
       x="0"
       y="0"
       width="114.417"
       height="114.418"
       id="pattern348"><path
         d="M 114.417,0 0,0 l 0,114.418 114.417,0 0,-114.418 z"
         style="fill:#fdcb01;fill-opacity:1;fill-rule:nonzero;stroke:none"
         id="path346" /></pattern><pattern
       patternTransform="translate(-88.1138,302.0337)"
       patternUnits="userSpaceOnUse"
       x="0"
       y="0"
       width="114.417"
       height="114.418"
       id="pattern356"><path
         d="M 114.417,0 0,0 l 0,114.418 114.417,0 0,-114.418 z"
         style="fill:#f60261;fill-opacity:1;fill-rule:nonzero;stroke:none"
         id="path354" /></pattern><pattern
       patternTransform="translate(-88.1138,302.0337)"
       patternUnits="userSpaceOnUse"
       x="0"
       y="0"
       width="114.417"
       height="114.418"
       id="pattern364"><path
         d="M 114.417,0 0,0 l 0,114.418 114.417,0 0,-114.418 z"
         style="fill:#f60261;fill-opacity:1;fill-rule:nonzero;stroke:none"
         id="path362" /></pattern><pattern
       patternTransform="translate(-88.1138,302.0337)"
       patternUnits="userSpaceOnUse"
       x="0"
       y="0"
       width="114.417"
       height="114.418"
       id="pattern372"><path
         d="M 114.417,0 0,0 l 0,114.418 114.417,0 0,-114.418 z"
         style="fill:#f60261;fill-opacity:1;fill-rule:nonzero;stroke:none"
         id="path370" /></pattern><pattern
       patternTransform="translate(-88.1138,302.0337)"
       patternUnits="userSpaceOnUse"
       x="0"
       y="0"
       width="114.417"
       height="114.418"
       id="pattern392"><path
         d="M 114.417,0 0,0 l 0,114.418 114.417,0 0,-114.418 z"
         style="fill:#f60261;fill-opacity:1;fill-rule:nonzero;stroke:none"
         id="path390" /></pattern><pattern
       patternTransform="translate(-88.1138,302.0337)"
       patternUnits="userSpaceOnUse"
       x="0"
       y="0"
       width="114.417"
       height="114.418"
       id="pattern400"><path
         d="M 114.417,0 0,0 l 0,114.418 114.417,0 0,-114.418 z"
         style="fill:#f60261;fill-opacity:1;fill-rule:nonzero;stroke:none"
         id="path398" /></pattern><pattern
       patternTransform="translate(-88.1138,302.0337)"
       patternUnits="userSpaceOnUse"
       x="0"
       y="0"
       width="114.417"
       height="114.418"
       id="pattern408"><path
         d="M 114.417,0 0,0 l 0,114.418 114.417,0 0,-114.418 z"
         style="fill:#f60261;fill-opacity:1;fill-rule:nonzero;stroke:none"
         id="path406" /></pattern><pattern
       patternTransform="translate(-88.1138,302.0337)"
       patternUnits="userSpaceOnUse"
       x="0"
       y="0"
       width="114.417"
       height="114.418"
       id="pattern416"><path
         d="M 114.417,0 0,0 l 0,114.418 114.417,0 0,-114.418 z"
         style="fill:#00ebea;fill-opacity:1;fill-rule:nonzero;stroke:none"
         id="path414" /></pattern><pattern
       patternTransform="translate(-88.1138,302.0337)"
       patternUnits="userSpaceOnUse"
       x="0"
       y="0"
       width="114.417"
       height="114.418"
       id="pattern440"><path
         d="M 114.417,0 0,0 l 0,114.418 114.417,0 0,-114.418 z"
         style="fill:#f60261;fill-opacity:1;fill-rule:nonzero;stroke:none"
         id="path438" /></pattern><pattern
       patternTransform="translate(-88.1138,302.0337)"
       patternUnits="userSpaceOnUse"
       x="0"
       y="0"
       width="114.417"
       height="114.418"
       id="pattern448"><path
         d="M 114.417,0 0,0 l 0,114.418 114.417,0 0,-114.418 z"
         style="fill:#f60261;fill-opacity:1;fill-rule:nonzero;stroke:none"
         id="path446" /></pattern><pattern
       patternTransform="translate(-88.1138,302.0337)"
       patternUnits="userSpaceOnUse"
       x="0"
       y="0"
       width="114.417"
       height="114.418"
       id="pattern456"><path
         d="M 114.417,0 0,0 l 0,114.418 114.417,0 0,-114.418 z"
         style="fill:#00ebea;fill-opacity:1;fill-rule:nonzero;stroke:none"
         id="path454" /></pattern><pattern
       patternTransform="translate(-88.1138,302.0337)"
       patternUnits="userSpaceOnUse"
       x="0"
       y="0"
       width="114.417"
       height="114.418"
       id="pattern464"><path
         d="M 114.417,0 0,0 l 0,114.418 114.417,0 0,-114.418 z"
         style="fill:#00ebea;fill-opacity:1;fill-rule:nonzero;stroke:none"
         id="path462" /></pattern><pattern
       patternTransform="translate(-88.1138,302.0337)"
       patternUnits="userSpaceOnUse"
       x="0"
       y="0"
       width="114.417"
       height="114.418"
       id="pattern472"><path
         d="M 114.417,0 0,0 l 0,114.418 114.417,0 0,-114.418 z"
         style="fill:#00ebea;fill-opacity:1;fill-rule:nonzero;stroke:none"
         id="path470" /></pattern><pattern
       patternTransform="translate(-88.1138,302.0337)"
       patternUnits="userSpaceOnUse"
       x="0"
       y="0"
       width="114.417"
       height="114.418"
       id="pattern480"><path
         d="M 114.417,0 0,0 l 0,114.418 114.417,0 0,-114.418 z"
         style="fill:#00ebea;fill-opacity:1;fill-rule:nonzero;stroke:none"
         id="path478" /></pattern><pattern
       patternTransform="translate(-88.1138,302.0337)"
       patternUnits="userSpaceOnUse"
       x="0"
       y="0"
       width="114.417"
       height="114.418"
       id="pattern544"><path
         d="M 114.417,0 0,0 l 0,114.418 114.417,0 0,-114.418 z"
         style="fill:#00ebea;fill-opacity:1;fill-rule:nonzero;stroke:none"
         id="path542" /></pattern></defs><sodipodi:namedview
     id="namedview4"
     pagecolor="#ffffff"
     bordercolor="#666666"
     borderopacity="1.0"
     inkscape:pageshadow="2"
     inkscape:pageopacity="0.0"
     inkscape:pagecheckerboard="0" /><g
     id="g8"
     inkscape:groupmode="layer"
     inkscape:label="background-1789175"
     transform="matrix(1.3333333,0,0,-1.3333333,0,1440)"><path
       d="M 0,0 H 1919.786 V 1080 H 0 Z"
       style="fill:#250448;fill-opacity:1;fill-rule:nonzero;stroke:none"
       id="path10" /><g
       id="g12"
       transform="translate(188.314,887.1831)"><path
         d="M 0,0 -100.2,-102.217"
         style="fill:#f5f5f5;fill-opacity:1;fill-rule:nonzero;stroke:none"
         id="path14" /></g><g
       id="g16"><g
         id="g18"
         clip-path="url(#clipPath22)"><g
           id="g24"
           transform="translate(88.1138,777.9663)"><path
             d="M 0,0 C -1.768,0 -3.537,0.666 -4.9,2.001 -7.661,4.708 -7.705,9.139 -4.999,11.9 l 100.2,102.217 c 2.706,2.761 7.137,2.805 9.9,0.099 2.76,-2.707 2.804,-7.138 0.098,-9.9 L 5,2.1 C 3.628,0.701 1.815,0 0,0"
             style="fill:#00ebea;fill-opacity:1;fill-rule:nonzero;stroke:none"
             id="path26" /></g><g
           id="g28"
           transform="translate(311.603,1012.9551)"><path
             d="M 0,0 -72.548,-74.009"
             style="fill:#f5f5f5;fill-opacity:1;fill-rule:nonzero;stroke:none"
             id="path30" /></g><g
           id="g32"
           transform="translate(239.0547,931.9463)"><path
             d="M 0,0 C -1.768,0 -3.537,0.666 -4.9,2.001 -7.661,4.708 -7.705,9.139 -4.999,11.9 l 72.548,74.009 c 2.707,2.76 7.138,2.805 9.9,0.099 2.76,-2.707 2.804,-7.138 0.098,-9.9 L 5,2.1 C 3.628,0.702 1.815,0 0,0"
             style="fill:#00ebea;fill-opacity:1;fill-rule:nonzero;stroke:none"
             id="path34" /></g><g
           id="g36"
           transform="translate(214.1284,431.2598)"><path
             d="m 0,0 c -2.021,0 -4.043,0.761 -5.6,2.287 -3.155,3.093 -3.205,8.158 -0.112,11.314 l 136.426,139.172 c 3.093,3.155 8.159,3.206 11.313,0.113 3.155,-3.093 3.205,-8.158 0.113,-11.313 L 5.713,2.399 C 4.147,0.802 2.074,0 0,0"
             style="fill:#fdcb01;fill-opacity:1;fill-rule:nonzero;stroke:none"
             id="path38" /></g><g
           id="g40"
           transform="translate(1799.6182,271.2402)"><path
             d="m 0,0 c -2.021,0 -4.042,0.761 -5.6,2.287 -3.154,3.093 -3.205,8.158 -0.112,11.314 l 40.865,41.688 c 3.093,3.154 8.159,3.205 11.314,0.112 3.154,-3.092 3.205,-8.158 0.112,-11.313 L 5.714,2.399 C 4.147,0.802 2.074,0 0,0"
             style="fill:url(#pattern44);fill-opacity:1;fill-rule:nonzero;stroke:none"
             id="path46" /></g><g
           id="g48"
           transform="translate(1214.1035,790.8975)"><path
             d="M 0,0 C -2.021,0 -4.042,0.761 -5.6,2.287 -8.755,5.38 -8.805,10.445 -5.712,13.6 l 98.089,100.064 c 3.093,3.154 8.158,3.206 11.313,0.112 3.156,-3.092 3.206,-8.157 0.113,-11.313 L 5.714,2.4 C 4.147,0.802 2.074,0 0,0"
             style="fill:url(#pattern52);fill-opacity:1;fill-rule:nonzero;stroke:none"
             id="path54" /></g><g
           id="g56"
           transform="translate(1170.7031,890.9604)"><path
             d="M 0,0 C -2.021,0 -4.042,0.761 -5.6,2.287 -8.755,5.38 -8.805,10.445 -5.712,13.6 l 128.387,130.97 c 3.093,3.155 8.158,3.206 11.313,0.113 3.156,-3.093 3.205,-8.158 0.113,-11.313 L 5.714,2.4 C 4.147,0.802 2.074,0 0,0"
             style="fill:#fdcb01;fill-opacity:1;fill-rule:nonzero;stroke:none"
             id="path58" /></g><g
           id="g60"
           transform="translate(1356.9609,766.7866)"><path
             d="M 0,0 C -2.021,0 -4.042,0.761 -5.6,2.287 -8.755,5.38 -8.805,10.445 -5.712,13.6 l 119.927,122.342 c 3.093,3.154 8.157,3.205 11.313,0.113 3.155,-3.093 3.205,-8.158 0.113,-11.313 L 5.714,2.4 C 4.147,0.802 2.074,0 0,0"
             style="fill:url(#pattern64);fill-opacity:1;fill-rule:nonzero;stroke:none"
             id="path66" /></g><g
           id="g68"
           transform="translate(1611.5313,793.4893)"><path
             d="M 0,0 C -2.021,0 -4.042,0.761 -5.6,2.287 -8.755,5.38 -8.805,10.445 -5.712,13.6 l 223.489,227.989 c 3.093,3.155 8.158,3.206 11.314,0.113 3.154,-3.093 3.205,-8.158 0.112,-11.313 L 5.714,2.4 C 4.147,0.802 2.074,0 0,0"
             style="fill:#fdcb01;fill-opacity:1;fill-rule:nonzero;stroke:none"
             id="path70" /></g><g
           id="g72"
           transform="translate(26.4692,563.4946)"><path
             d="M 0,0 C -2.021,0 -4.042,0.761 -5.6,2.287 -8.755,5.38 -8.805,10.445 -5.712,13.6 l 95.066,96.98 c 3.093,3.156 8.158,3.205 11.313,0.113 3.155,-3.093 3.206,-8.158 0.113,-11.313 L 5.713,2.4 C 4.147,0.802 2.074,0 0,0"
             style="fill:#fdcb01;fill-opacity:1;fill-rule:nonzero;stroke:none"
             id="path74" /></g><g
           id="g76"
           transform="translate(178.2983,718.3809)"><path
             d="M 0,0 C -2.021,0 -4.042,0.761 -5.6,2.287 -8.755,5.38 -8.805,10.445 -5.712,13.6 l 71.66,73.103 c 3.093,3.154 8.157,3.206 11.313,0.113 3.155,-3.093 3.205,-8.158 0.113,-11.313 L 5.713,2.4 C 4.147,0.802 2.074,0 0,0"
             style="fill:#fdcb01;fill-opacity:1;fill-rule:nonzero;stroke:none"
             id="path78" /></g><g
           id="g80"
           transform="translate(989.5215,217.1719)"><path
             d="M 0,0 C -2.021,0 -4.042,0.761 -5.6,2.287 -8.754,5.38 -8.805,10.445 -5.712,13.601 L 89,110.219 c 3.093,3.153 8.158,3.205 11.313,0.112 3.156,-3.093 3.206,-8.158 0.113,-11.313 L 5.714,2.399 C 4.147,0.802 2.074,0 0,0"
             style="fill:#fdcb01;fill-opacity:1;fill-rule:nonzero;stroke:none"
             id="path82" /></g><g
           id="g84"
           transform="translate(1127.291,357.7139)"><path
             d="m 0,0 c -2.021,0 -4.043,0.761 -5.601,2.287 -3.154,3.093 -3.205,8.158 -0.112,11.314 l 85.721,87.446 c 3.094,3.155 8.159,3.203 11.313,0.112 3.155,-3.093 3.205,-8.158 0.113,-11.313 L 5.713,2.399 C 4.146,0.802 2.073,0 0,0"
             style="fill:url(#pattern88);fill-opacity:1;fill-rule:nonzero;stroke:none"
             id="path90" /></g><g
           id="g92"
           transform="translate(1565.998,138.1699)"><path
             d="m 0,0 c -2.021,0 -4.042,0.761 -5.6,2.287 -3.155,3.093 -3.205,8.158 -0.112,11.314 l 223.489,227.988 c 3.093,3.154 8.159,3.205 11.314,0.112 3.154,-3.093 3.205,-8.158 0.112,-11.313 L 5.714,2.399 C 4.147,0.802 2.074,0 0,0"
             style="fill:url(#pattern96);fill-opacity:1;fill-rule:nonzero;stroke:none"
             id="path98" /></g><g
           id="g100"
           transform="translate(1214.1143,56.5605)"><path
             d="M 0,0 C -2.021,0 -4.042,0.761 -5.6,2.287 -8.754,5.38 -8.805,10.445 -5.712,13.601 L 104.929,126.47 c 3.092,3.153 8.157,3.205 11.313,0.112 3.154,-3.093 3.205,-8.158 0.112,-11.313 L 5.714,2.399 C 4.147,0.802 2.074,0 0,0"
             style="fill:#fdcb01;fill-opacity:1;fill-rule:nonzero;stroke:none"
             id="path102" /></g><g
           id="g104"
           transform="translate(1534.8057,406.5059)"><path
             d="m 0,0 c -2.021,0 -4.042,0.761 -5.6,2.287 -3.154,3.093 -3.205,8.158 -0.112,11.314 l 223.489,227.987 c 3.093,3.155 8.159,3.206 11.314,0.113 3.155,-3.093 3.205,-8.158 0.112,-11.313 L 5.714,2.399 C 4.147,0.802 2.074,0 0,0"
             style="fill:#fdcb01;fill-opacity:1;fill-rule:nonzero;stroke:none"
             id="path106" /></g><g
           id="g108"
           transform="translate(529.2383,604.3867)"><path
             d="M 0,0 C -2.021,0 -4.043,0.761 -5.6,2.287 -8.755,5.38 -8.805,10.445 -5.712,13.6 l 223.489,227.988 c 3.093,3.155 8.159,3.206 11.313,0.113 3.155,-3.093 3.205,-8.158 0.113,-11.313 L 5.713,2.4 C 4.147,0.802 2.074,0 0,0"
             style="fill:url(#pattern112);fill-opacity:1;fill-rule:nonzero;stroke:none"
             id="path114" /></g><g
           id="g116"
           transform="translate(486.5669,64.0986)"><path
             d="m 0,0 c -2.021,0 -4.043,0.761 -5.6,2.287 -3.155,3.093 -3.205,8.158 -0.112,11.314 l 223.489,227.988 c 3.093,3.153 8.159,3.205 11.313,0.112 3.155,-3.093 3.205,-8.158 0.113,-11.313 L 5.713,2.399 C 4.147,0.802 2.074,0 0,0"
             style="fill:#fdcb01;fill-opacity:1;fill-rule:nonzero;stroke:none"
             id="path118" /></g><g
           id="g120"
           transform="translate(421.8452,570.4326)"><path
             d="M 0,0 C -2.021,0 -4.042,0.761 -5.6,2.287 -8.755,5.38 -8.805,10.445 -5.712,13.6 l 90.7,92.526 c 3.093,3.156 8.158,3.206 11.313,0.113 3.155,-3.093 3.205,-8.158 0.113,-11.313 L 5.713,2.4 C 4.147,0.802 2.074,0 0,0"
             style="fill:#fdcb01;fill-opacity:1;fill-rule:nonzero;stroke:none"
             id="path122" /></g><g
           id="g124"
           transform="translate(694.0415,700.4927)"><path
             d="M 0,0 C -2.021,0 -4.042,0.761 -5.6,2.287 -8.755,5.38 -8.805,10.445 -5.712,13.6 l 86.272,88.009 c 3.093,3.155 8.158,3.205 11.313,0.113 3.155,-3.093 3.206,-8.158 0.113,-11.313 L 5.713,2.4 C 4.147,0.802 2.074,0 0,0"
             style="fill:#fdcb01;fill-opacity:1;fill-rule:nonzero;stroke:none"
             id="path126" /></g><g
           id="g128"
           transform="translate(1773.7139,776.9663)"><path
             d="M 0,0 C -2.021,0 -4.042,0.761 -5.6,2.287 -8.755,5.38 -8.805,10.445 -5.712,13.6 l 127.889,130.463 c 3.093,3.154 8.157,3.205 11.313,0.112 3.156,-3.092 3.205,-8.157 0.113,-11.313 L 5.714,2.4 C 4.147,0.802 2.074,0 0,0"
             style="fill:#fdcb01;fill-opacity:1;fill-rule:nonzero;stroke:none"
             id="path130" /></g><g
           id="g132"
           transform="translate(1820.0508,138.1699)"><path
             d="m 0,0 c -2.021,0 -4.042,0.761 -5.6,2.287 -3.155,3.093 -3.205,8.158 -0.112,11.314 l 72.665,74.128 c 3.093,3.153 8.157,3.205 11.314,0.112 3.155,-3.093 3.205,-8.158 0.112,-11.314 L 5.714,2.399 C 4.147,0.802 2.074,0 0,0"
             style="fill:#fdcb01;fill-opacity:1;fill-rule:nonzero;stroke:none"
             id="path134" /></g><g
           id="g136"
           transform="translate(1404.7871,504.208)"><path
             d="m 0,0 c -2.021,0 -4.042,0.761 -5.6,2.287 -3.155,3.093 -3.205,8.158 -0.112,11.314 l 119.148,121.544 c 3.092,3.154 8.157,3.206 11.313,0.113 3.155,-3.093 3.205,-8.158 0.112,-11.313 L 5.714,2.399 C 4.147,0.802 2.074,0 0,0"
             style="fill:#fdcb01;fill-opacity:1;fill-rule:nonzero;stroke:none"
             id="path138" /></g><g
           id="g140"
           transform="translate(766.0317,194.9551)"><path
             d="m 0,0 c -2.021,0 -4.042,0.761 -5.6,2.287 -3.155,3.093 -3.205,8.158 -0.112,11.314 l 38.624,39.401 c 3.093,3.155 8.158,3.205 11.313,0.112 3.155,-3.093 3.205,-8.158 0.112,-11.313 L 5.713,2.399 C 4.147,0.802 2.074,0 0,0"
             style="fill:url(#pattern144);fill-opacity:1;fill-rule:nonzero;stroke:none"
             id="path146" /></g><g
           id="g148"
           transform="translate(848.2129,278.791)"><path
             d="m 0,0 c -2.021,0 -4.042,0.761 -5.6,2.287 -3.155,3.093 -3.205,8.158 -0.112,11.314 l 141.309,144.152 c 3.094,3.155 8.158,3.204 11.313,0.112 3.155,-3.093 3.205,-8.158 0.112,-11.313 L 5.713,2.399 C 4.147,0.802 2.074,0 0,0"
             style="fill:#fdcb01;fill-opacity:1;fill-rule:nonzero;stroke:none"
             id="path150" /></g><g
           id="g152"
           transform="translate(294.3716,761.4336)"><path
             d="M 0,0 C -2.021,0 -4.042,0.761 -5.6,2.287 -8.755,5.38 -8.805,10.445 -5.712,13.6 l 223.49,227.988 c 3.093,3.156 8.158,3.205 11.313,0.113 3.155,-3.093 3.205,-8.158 0.113,-11.313 L 5.713,2.4 C 4.147,0.802 2.074,0 0,0"
             style="fill:#fdcb01;fill-opacity:1;fill-rule:nonzero;stroke:none"
             id="path154" /></g><g
           id="g156"
           transform="translate(232.8501,8.1563)"><path
             d="m 0,0 c -2.021,0 -4.042,0.761 -5.6,2.287 -3.155,3.093 -3.205,8.158 -0.112,11.314 l 127.448,130.013 c 3.093,3.155 8.158,3.205 11.313,0.113 3.155,-3.093 3.205,-8.159 0.113,-11.314 L 5.713,2.399 C 4.147,0.802 2.074,0 0,0"
             style="fill:#fdcb01;fill-opacity:1;fill-rule:nonzero;stroke:none"
             id="path158" /></g><g
           id="g160"
           transform="translate(18.7822,897.2422)"><path
             d="M 0,0 C -1.768,0 -3.537,0.666 -4.9,2.001 -7.661,4.708 -7.705,9.14 -4.999,11.9 l 142.724,145.596 c 2.706,2.76 7.137,2.805 9.899,0.099 2.761,-2.707 2.805,-7.139 0.099,-9.9 L 5,2.1 C 3.628,0.702 1.815,0 0,0"
             style="fill:#f60261;fill-opacity:1;fill-rule:nonzero;stroke:none"
             id="path162" /></g><g
           id="g164"
           transform="translate(793.5933,380.1162)"><path
             d="m 0,0 c -2.021,0 -4.042,0.761 -5.6,2.287 -3.155,3.093 -3.205,8.158 -0.112,11.314 l 223.49,227.987 c 3.093,3.155 8.157,3.206 11.313,0.113 3.156,-3.093 3.205,-8.158 0.113,-11.313 L 5.713,2.399 C 4.147,0.802 2.074,0 0,0"
             style="fill:url(#pattern168);fill-opacity:1;fill-rule:nonzero;stroke:none"
             id="path170" /></g><g
           id="g172"
           transform="translate(1151.126,463.291)"><path
             d="m 0,0 c -2.021,0 -4.042,0.761 -5.6,2.287 -3.155,3.093 -3.205,8.158 -0.112,11.314 l 223.49,227.987 c 3.093,3.155 8.158,3.206 11.314,0.113 3.155,-3.093 3.205,-8.158 0.112,-11.313 L 5.714,2.399 C 4.147,0.802 2.074,0 0,0"
             style="fill:#fdcb01;fill-opacity:1;fill-rule:nonzero;stroke:none"
             id="path174" /></g><g
           id="g176"
           transform="translate(1374.6152,64.0986)"><path
             d="m 0,0 c -2.021,0 -4.042,0.761 -5.6,2.287 -3.155,3.093 -3.205,8.158 -0.112,11.314 l 223.49,227.988 c 3.093,3.153 8.158,3.205 11.314,0.112 3.155,-3.093 3.205,-8.158 0.112,-11.313 L 5.714,2.399 C 4.147,0.802 2.074,0 0,0"
             style="fill:url(#pattern180);fill-opacity:1;fill-rule:nonzero;stroke:none"
             id="path182" /></g><g
           id="g184"
           transform="translate(1789.4863,511.7578)"><path
             d="M 0,0 C -2.021,0 -4.042,0.761 -5.6,2.287 -8.754,5.38 -8.805,10.445 -5.712,13.601 L 96.65,118.022 c 3.093,3.155 8.158,3.207 11.314,0.113 3.155,-3.093 3.205,-8.157 0.112,-11.313 L 5.714,2.399 C 4.147,0.802 2.074,0 0,0"
             style="fill:url(#pattern188);fill-opacity:1;fill-rule:nonzero;stroke:none"
             id="path190" /></g><g
           id="g192"
           transform="translate(62.6309,178.0918)"><path
             d="m 0,0 c -2.021,0 -4.042,0.761 -5.6,2.287 -3.155,3.093 -3.205,8.158 -0.112,11.314 l 223.49,227.988 c 3.093,3.154 8.158,3.205 11.313,0.112 3.155,-3.093 3.205,-8.158 0.113,-11.313 L 5.713,2.399 C 4.147,0.802 2.074,0 0,0"
             style="fill:#fdcb01;fill-opacity:1;fill-rule:nonzero;stroke:none"
             id="path194" /></g><g
           id="g196"
           transform="translate(987.9883,28.6826)"><path
             d="m 0,0 c -2.021,0 -4.042,0.761 -5.6,2.287 -3.154,3.093 -3.205,8.158 -0.112,11.314 l 131.867,134.52 c 3.093,3.153 8.158,3.205 11.314,0.112 3.154,-3.092 3.205,-8.158 0.112,-11.313 L 5.714,2.399 C 4.147,0.802 2.074,0 0,0"
             style="fill:url(#pattern200);fill-opacity:1;fill-rule:nonzero;stroke:none"
             id="path202" /></g><g
           id="g204"
           transform="translate(23.085,655.6382)"><path
             d="M 0,0 C -2.021,0 -4.042,0.761 -5.6,2.287 -8.755,5.38 -8.805,10.445 -5.712,13.6 l 223.49,227.988 c 3.093,3.156 8.158,3.206 11.313,0.113 3.155,-3.093 3.205,-8.158 0.113,-11.313 L 5.713,2.4 C 4.147,0.802 2.074,0 0,0"
             style="fill:#fdcb01;fill-opacity:1;fill-rule:nonzero;stroke:none"
             id="path206" /></g><g
           id="g208"
           transform="translate(1352.6162,816.9521)"><path
             d="M 0,0 C -2.021,0 -4.042,0.761 -5.6,2.287 -8.755,5.38 -8.805,10.445 -5.712,13.6 l 223.49,227.988 c 3.093,3.155 8.158,3.206 11.314,0.113 3.155,-3.093 3.205,-8.158 0.112,-11.313 L 5.714,2.4 C 4.147,0.802 2.074,0 0,0"
             style="fill:#fdcb01;fill-opacity:1;fill-rule:nonzero;stroke:none"
             id="path210" /></g><g
           id="g212"
           transform="translate(1454.2529,994.7739)"><path
             d="M 0,0 C -2.021,0 -4.042,0.761 -5.6,2.287 -8.755,5.38 -8.805,10.445 -5.712,13.6 l 51.965,53.01 c 3.093,3.155 8.157,3.206 11.313,0.113 3.156,-3.093 3.205,-8.158 0.113,-11.313 L 5.714,2.4 C 4.147,0.802 2.074,0 0,0"
             style="fill:#fdcb01;fill-opacity:1;fill-rule:nonzero;stroke:none"
             id="path214" /></g><g
           id="g216"
           transform="translate(557.8516,894.6377)"><path
             d="M 0,0 C -2.021,0 -4.042,0.761 -5.6,2.287 -8.755,5.38 -8.805,10.445 -5.712,13.6 l 87.993,89.764 c 3.093,3.156 8.158,3.206 11.313,0.113 3.155,-3.093 3.205,-8.158 0.113,-11.313 L 5.713,2.4 C 4.147,0.802 2.074,0 0,0"
             style="fill:url(#pattern220);fill-opacity:1;fill-rule:nonzero;stroke:none"
             id="path222" /></g><g
           id="g224"
           transform="translate(1368.501,136.9932)"><path
             d="m 0,0 c -2.021,0 -4.042,0.761 -5.6,2.287 -3.155,3.093 -3.205,8.158 -0.112,11.314 l 51.384,52.418 c 3.092,3.154 8.157,3.205 11.313,0.112 3.156,-3.093 3.205,-8.158 0.113,-11.314 L 5.714,2.399 C 4.147,0.802 2.074,0 0,0"
             style="fill:url(#pattern228);fill-opacity:1;fill-rule:nonzero;stroke:none"
             id="path230" /></g><g
           id="g232"
           transform="translate(557.8516,782.2764)"><path
             d="M 0,0 C -2.021,0 -4.042,0.761 -5.6,2.287 -8.755,5.38 -8.805,10.445 -5.712,13.6 l 111.717,113.966 c 3.093,3.156 8.158,3.205 11.313,0.113 3.155,-3.093 3.205,-8.158 0.113,-11.313 L 5.713,2.4 C 4.147,0.802 2.074,0 0,0"
             style="fill:url(#pattern236);fill-opacity:1;fill-rule:nonzero;stroke:none"
             id="path238" /></g><g
           id="g240"
           transform="translate(529.2378,456.4385)"><path
             d="m 0,0 c -2.021,0 -4.042,0.761 -5.6,2.287 -3.155,3.093 -3.205,8.158 -0.112,11.314 l 223.49,227.987 c 3.093,3.156 8.158,3.206 11.313,0.113 3.155,-3.093 3.205,-8.158 0.113,-11.313 L 5.713,2.399 C 4.147,0.802 2.074,0 0,0"
             style="fill:#fdcb01;fill-opacity:1;fill-rule:nonzero;stroke:none"
             id="path242" /></g><g
           id="g244"
           transform="translate(738.5659,36.0781)"><path
             d="m 0,0 c -2.021,0 -4.042,0.761 -5.6,2.287 -3.155,3.093 -3.205,8.158 -0.112,11.314 l 139.211,142.013 c 3.093,3.156 8.158,3.205 11.313,0.113 3.155,-3.093 3.206,-8.159 0.113,-11.314 L 5.713,2.399 C 4.147,0.802 2.074,0 0,0"
             style="fill:#fdcb01;fill-opacity:1;fill-rule:nonzero;stroke:none"
             id="path246" /></g><g
           id="g248"
           transform="translate(1630.1533,18.5352)"><path
             d="M 0,0 C -2.021,0 -4.042,0.761 -5.6,2.287 -8.754,5.38 -8.805,10.445 -5.712,13.601 L 111.56,133.234 c 3.092,3.154 8.158,3.205 11.313,0.113 3.154,-3.093 3.205,-8.159 0.112,-11.314 L 5.714,2.399 C 4.147,0.802 2.074,0 0,0"
             style="fill:url(#pattern252);fill-opacity:1;fill-rule:nonzero;stroke:none"
             id="path254" /></g><g
           id="g256"
           transform="translate(30.2036,422.3975)"><path
             d="m 0,0 c -2.021,0 -4.042,0.761 -5.6,2.287 -3.155,3.093 -3.205,8.158 -0.112,11.314 l 87.597,89.36 c 3.094,3.154 8.158,3.204 11.313,0.112 3.156,-3.093 3.206,-8.158 0.113,-11.313 L 5.713,2.399 C 4.147,0.802 2.074,0 0,0"
             style="fill:#fdcb01;fill-opacity:1;fill-rule:nonzero;stroke:none"
             id="path258" /></g><g
           id="g260"
           transform="translate(294.3711,308.9492)"><path
             d="m 0,0 c -2.021,0 -4.042,0.761 -5.6,2.287 -3.155,3.093 -3.205,8.158 -0.112,11.314 l 223.49,227.986 c 3.093,3.156 8.158,3.205 11.313,0.113 3.155,-3.093 3.205,-8.158 0.113,-11.313 L 5.713,2.399 C 4.147,0.802 2.074,0 0,0"
             style="fill:url(#pattern264);fill-opacity:1;fill-rule:nonzero;stroke:none"
             id="path266" /></g><g
           id="g268"
           transform="translate(989.5205,808.2266)"><path
             d="M 0,0 C -2.021,0 -4.042,0.761 -5.6,2.287 -8.755,5.38 -8.805,10.445 -5.712,13.6 l 223.49,227.988 c 3.093,3.154 8.158,3.206 11.314,0.113 3.155,-3.093 3.205,-8.158 0.112,-11.313 L 5.714,2.4 C 4.147,0.802 2.074,0 0,0"
             style="fill:url(#pattern272);fill-opacity:1;fill-rule:nonzero;stroke:none"
             id="path274" /></g><g
           id="g276"
           transform="translate(1188.7002,138.1699)"><path
             d="m 0,0 c -2.021,0 -4.042,0.761 -5.6,2.287 -3.155,3.093 -3.205,8.158 -0.112,11.314 l 223.49,227.988 c 3.093,3.154 8.158,3.205 11.314,0.112 3.155,-3.093 3.205,-8.158 0.112,-11.313 L 5.714,2.399 C 4.147,0.802 2.074,0 0,0"
             style="fill:url(#pattern280);fill-opacity:1;fill-rule:nonzero;stroke:none"
             id="path282" /></g><g
           id="g284"
           transform="translate(1431.9434,691.2773)"><path
             d="M 0,0 C -2.021,0 -4.042,0.761 -5.6,2.287 -8.755,5.38 -8.805,10.445 -5.712,13.6 l 223.49,227.988 c 3.093,3.155 8.158,3.206 11.314,0.113 3.155,-3.093 3.205,-8.158 0.112,-11.313 L 5.714,2.4 C 4.147,0.802 2.074,0 0,0"
             style="fill:url(#pattern288);fill-opacity:1;fill-rule:nonzero;stroke:none"
             id="path290" /></g><g
           id="g292"
           transform="translate(397.1636,947.5195)"><path
             d="M 0,0 -62.829,-64.093"
             style="fill:#f5f5f5;fill-opacity:1;fill-rule:nonzero;stroke:none"
             id="path294" /></g><g
           id="g296"
           transform="translate(334.3345,876.4263)"><path
             d="M 0,0 C -1.768,0 -3.537,0.666 -4.9,2.001 -7.661,4.708 -7.705,9.14 -4.999,11.9 L 57.83,75.994 c 2.706,2.761 7.137,2.805 9.899,0.098 2.761,-2.706 2.805,-7.138 0.099,-9.899 L 5,2.1 C 3.628,0.702 1.815,0 0,0"
             style="fill:#00ebea;fill-opacity:1;fill-rule:nonzero;stroke:none"
             id="path298" /></g><g
           id="g300"
           transform="translate(250.4824,581.5176)"><path
             d="m 0,0 c -1.779,0 -3.558,0.674 -4.923,2.023 -2.748,2.719 -2.772,7.151 -0.054,9.9 l 262.064,264.936 c 2.719,2.749 7.151,2.772 9.899,0.054 2.749,-2.719 2.773,-7.151 0.054,-9.899 L 4.977,2.077 C 3.607,0.693 1.804,0 0,0"
             style="fill:#f60261;fill-opacity:1;fill-rule:nonzero;stroke:none"
             id="path302" /></g><g
           id="g304"
           transform="translate(346.1689,752.4971)"><path
             d="M 0,0 -184.663,-186.124"
             style="fill:#f5f5f5;fill-opacity:1;fill-rule:nonzero;stroke:none"
             id="path306" /></g><g
           id="g308"
           transform="translate(161.5059,559.373)"><path
             d="m 0,0 c -1.782,0 -3.565,0.676 -4.93,2.031 -2.745,2.723 -2.762,7.155 -0.039,9.899 l 184.663,186.124 c 2.724,2.745 7.156,2.761 9.899,0.039 2.745,-2.723 2.762,-7.155 0.039,-9.899 L 4.969,2.07 C 3.601,0.69 1.8,0 0,0"
             style="fill:#00ebea;fill-opacity:1;fill-rule:nonzero;stroke:none"
             id="path310" /></g><g
           id="g312"
           transform="translate(365.749,989.4209)"><path
             d="M 0,0 C -2.021,0 -4.042,0.761 -5.6,2.287 -8.755,5.38 -8.805,10.445 -5.712,13.6 l 40.865,41.689 c 3.093,3.154 8.159,3.205 11.313,0.112 3.156,-3.092 3.206,-8.157 0.113,-11.313 L 5.713,2.4 C 4.147,0.802 2.074,0 0,0"
             style="fill:url(#pattern316);fill-opacity:1;fill-rule:nonzero;stroke:none"
             id="path318" /></g><g
           id="g320"
           transform="translate(516.9858,257.9463)"><path
             d="m 0,0 c -2.021,0 -4.042,0.761 -5.6,2.287 -3.155,3.093 -3.205,8.158 -0.112,11.314 l 40.865,41.688 c 3.093,3.155 8.159,3.205 11.313,0.112 3.156,-3.092 3.206,-8.158 0.113,-11.313 L 5.713,2.399 C 4.147,0.802 2.074,0 0,0"
             style="fill:url(#pattern324);fill-opacity:1;fill-rule:nonzero;stroke:none"
             id="path326" /></g><g
           id="g328"
           transform="translate(117.7808,910.1021)"><path
             d="M 0,0 C -2.021,0 -4.043,0.761 -5.6,2.287 -8.755,5.38 -8.805,10.445 -5.712,13.6 l 40.865,41.689 c 3.093,3.154 8.158,3.206 11.313,0.112 3.156,-3.092 3.206,-8.157 0.113,-11.313 L 5.713,2.4 C 4.147,0.802 2.074,0 0,0"
             style="fill:url(#pattern332);fill-opacity:1;fill-rule:nonzero;stroke:none"
             id="path334" /></g><g
           id="g336"
           transform="translate(218.6216,1000.6338)"><path
             d="M 0,0 C -2.021,0 -4.043,0.761 -5.6,2.287 -8.755,5.38 -8.805,10.445 -5.712,13.6 l 40.865,41.689 c 3.093,3.154 8.158,3.205 11.313,0.112 3.156,-3.092 3.206,-8.157 0.113,-11.313 L 5.713,2.4 C 4.147,0.802 2.074,0 0,0"
             style="fill:url(#pattern340);fill-opacity:1;fill-rule:nonzero;stroke:none"
             id="path342" /></g><g
           id="g344"
           transform="translate(732.2944,886.6284)"><path
             d="M 0,0 C -2.021,0 -4.043,0.761 -5.6,2.287 -8.755,5.38 -8.805,10.445 -5.712,13.6 l 40.865,41.689 c 3.093,3.154 8.159,3.205 11.313,0.112 3.156,-3.092 3.206,-8.157 0.113,-11.313 L 5.713,2.4 C 4.147,0.802 2.074,0 0,0"
             style="fill:url(#pattern348);fill-opacity:1;fill-rule:nonzero;stroke:none"
             id="path350" /></g><g
           id="g352"
           transform="translate(905.3384,630.5908)"><path
             d="M 0,0 C -2.021,0 -4.043,0.761 -5.6,2.287 -8.755,5.38 -8.805,10.445 -5.712,13.6 l 40.865,41.689 c 3.093,3.154 8.159,3.205 11.313,0.112 3.156,-3.092 3.206,-8.157 0.113,-11.313 L 5.713,2.4 C 4.147,0.802 2.074,0 0,0"
             style="fill:url(#pattern356);fill-opacity:1;fill-rule:nonzero;stroke:none"
             id="path358" /></g><g
           id="g360"
           transform="translate(905.3384,854.582)"><path
             d="M 0,0 C -2.021,0 -4.043,0.761 -5.6,2.287 -8.755,5.38 -8.805,10.445 -5.712,13.6 l 40.865,41.689 c 3.093,3.154 8.159,3.205 11.313,0.112 3.156,-3.092 3.206,-8.157 0.113,-11.313 L 5.713,2.4 C 4.147,0.802 2.074,0 0,0"
             style="fill:url(#pattern364);fill-opacity:1;fill-rule:nonzero;stroke:none"
             id="path366" /></g><g
           id="g368"
           transform="translate(905.3384,984.1108)"><path
             d="M 0,0 C -2.021,0 -4.043,0.761 -5.6,2.287 -8.755,5.38 -8.805,10.445 -5.712,13.6 l 40.865,41.689 c 3.093,3.154 8.159,3.205 11.313,0.112 3.156,-3.092 3.206,-8.157 0.113,-11.313 L 5.713,2.4 C 4.147,0.802 2.074,0 0,0"
             style="fill:url(#pattern372);fill-opacity:1;fill-rule:nonzero;stroke:none"
             id="path374" /></g><g
           id="g376"
           transform="translate(869.2993,754.9326)"><path
             d="M 0,0 C -2.021,0 -4.042,0.761 -5.6,2.287 -8.755,5.38 -8.805,10.445 -5.712,13.6 l 90.7,92.526 c 3.093,3.156 8.157,3.206 11.313,0.113 3.156,-3.093 3.205,-8.157 0.113,-11.313 L 5.713,2.4 C 4.147,0.802 2.074,0 0,0"
             style="fill:#fdcb01;fill-opacity:1;fill-rule:nonzero;stroke:none"
             id="path378" /></g><g
           id="g380"
           transform="translate(673.2993,410.9326)"><path
             d="m 0,0 c -2.021,0 -4.042,0.761 -5.6,2.287 -3.155,3.093 -3.205,8.158 -0.112,11.314 l 90.7,92.526 c 3.093,3.153 8.158,3.205 11.313,0.112 3.155,-3.093 3.205,-8.158 0.113,-11.313 L 5.713,2.399 C 4.147,0.802 2.074,0 0,0"
             style="fill:#fdcb01;fill-opacity:1;fill-rule:nonzero;stroke:none"
             id="path382" /></g><g
           id="g384"
           transform="translate(266.2524,148.6914)"><path
             d="m 0,0 c -2.021,0 -4.042,0.761 -5.6,2.287 -3.155,3.093 -3.205,8.158 -0.112,11.314 l 90.7,92.526 c 3.092,3.153 8.158,3.205 11.313,0.112 3.155,-3.093 3.205,-8.158 0.113,-11.313 L 5.713,2.399 C 4.147,0.802 2.074,0 0,0"
             style="fill:#fdcb01;fill-opacity:1;fill-rule:nonzero;stroke:none"
             id="path386" /></g><g
           id="g388"
           transform="translate(600.4946,36.4961)"><path
             d="m 0,0 c -2.021,0 -4.042,0.761 -5.6,2.287 -3.155,3.093 -3.205,8.158 -0.112,11.314 l 90.7,92.526 c 3.093,3.153 8.158,3.205 11.313,0.112 3.155,-3.093 3.205,-8.158 0.113,-11.313 L 5.713,2.399 C 4.147,0.802 2.074,0 0,0"
             style="fill:url(#pattern392);fill-opacity:1;fill-rule:nonzero;stroke:none"
             id="path394" /></g><g
           id="g396"
           transform="translate(1545.5654,889.2578)"><path
             d="M 0,0 C -2.021,0 -4.042,0.761 -5.6,2.287 -8.755,5.38 -8.805,10.445 -5.712,13.6 l 40.866,41.689 c 3.093,3.154 8.158,3.205 11.314,0.112 3.155,-3.092 3.205,-8.158 0.112,-11.313 L 5.714,2.4 C 4.147,0.802 2.074,0 0,0"
             style="fill:url(#pattern400);fill-opacity:1;fill-rule:nonzero;stroke:none"
             id="path402" /></g><g
           id="g404"
           transform="translate(1503.502,490.9121)"><path
             d="m 0,0 c -2.021,0 -4.042,0.761 -5.6,2.287 -3.155,3.093 -3.205,8.158 -0.112,11.314 l 40.866,41.688 c 3.093,3.153 8.158,3.206 11.314,0.112 3.155,-3.092 3.205,-8.158 0.112,-11.313 L 5.714,2.399 C 4.147,0.802 2.074,0 0,0"
             style="fill:url(#pattern408);fill-opacity:1;fill-rule:nonzero;stroke:none"
             id="path410" /></g><g
           id="g412"
           transform="translate(1139.083,575.0083)"><path
             d="M 0,0 C -2.021,0 -4.042,0.761 -5.6,2.287 -8.755,5.38 -8.805,10.445 -5.712,13.6 l 40.866,41.688 c 3.093,3.154 8.158,3.206 11.314,0.112 3.155,-3.092 3.205,-8.158 0.112,-11.313 L 5.714,2.4 C 4.147,0.802 2.074,0 0,0"
             style="fill:url(#pattern416);fill-opacity:1;fill-rule:nonzero;stroke:none"
             id="path418" /></g><g
           id="g420"
           transform="translate(839.9302,863.8389)"><path
             d="M 0,0 C -2.021,0 -4.042,0.761 -5.6,2.287 -8.755,5.38 -8.805,10.445 -5.712,13.6 l 90.7,92.526 c 3.093,3.156 8.158,3.206 11.313,0.113 3.155,-3.093 3.205,-8.157 0.113,-11.313 L 5.713,2.4 C 4.147,0.802 2.074,0 0,0"
             style="fill:#fdcb01;fill-opacity:1;fill-rule:nonzero;stroke:none"
             id="path422" /></g><g
           id="g424"
           transform="translate(1076.957,586.4985)"><path
             d="M 0,0 C -2.021,0 -4.042,0.761 -5.6,2.287 -8.755,5.38 -8.805,10.445 -5.712,13.6 l 223.49,227.988 c 3.093,3.154 8.158,3.205 11.314,0.113 3.155,-3.093 3.205,-8.158 0.112,-11.313 L 5.714,2.4 C 4.147,0.802 2.074,0 0,0"
             style="fill:#fdcb01;fill-opacity:1;fill-rule:nonzero;stroke:none"
             id="path426" /></g><g
           id="g428"
           transform="translate(1447.5352,601.9092)"><path
             d="M 0,0 -184.663,-186.125"
             style="fill:#f5f5f5;fill-opacity:1;fill-rule:nonzero;stroke:none"
             id="path430" /></g><g
           id="g432"
           transform="translate(1262.8721,408.7842)"><path
             d="m 0,0 c -1.782,0 -3.565,0.677 -4.931,2.031 -2.744,2.723 -2.761,7.155 -0.038,9.9 l 184.662,186.124 c 2.724,2.745 7.156,2.763 9.901,0.039 2.744,-2.723 2.761,-7.155 0.038,-9.899 L 4.969,2.069 C 3.601,0.69 1.801,0 0,0"
             style="fill:#00ebea;fill-opacity:1;fill-rule:nonzero;stroke:none"
             id="path434" /></g><g
           id="g436"
           transform="translate(1118.6494,310.3213)"><path
             d="m 0,0 c -2.021,0 -4.042,0.761 -5.6,2.287 -3.155,3.093 -3.205,8.158 -0.112,11.314 l 40.866,41.688 c 3.093,3.154 8.158,3.205 11.314,0.112 3.155,-3.092 3.205,-8.158 0.112,-11.313 L 5.714,2.399 C 4.147,0.802 2.074,0 0,0"
             style="fill:url(#pattern440);fill-opacity:1;fill-rule:nonzero;stroke:none"
             id="path442" /></g><g
           id="g444"
           transform="translate(537.4185,331.165)"><path
             d="m 0,0 c -2.021,0 -4.042,0.761 -5.6,2.287 -3.155,3.093 -3.205,8.158 -0.112,11.314 l 40.866,41.688 c 3.093,3.154 8.158,3.205 11.313,0.112 3.155,-3.092 3.205,-8.158 0.113,-11.313 L 5.713,2.399 C 4.147,0.802 2.074,0 0,0"
             style="fill:url(#pattern448);fill-opacity:1;fill-rule:nonzero;stroke:none"
             id="path450" /></g><g
           id="g452"
           transform="translate(1615.2471,745.9424)"><path
             d="M 0,0 C -2.021,0 -4.042,0.761 -5.6,2.287 -8.754,5.38 -8.805,10.445 -5.712,13.6 l 40.865,41.689 c 3.093,3.154 8.158,3.205 11.314,0.112 3.154,-3.092 3.205,-8.157 0.112,-11.313 L 5.714,2.4 C 4.147,0.802 2.074,0 0,0"
             style="fill:url(#pattern456);fill-opacity:1;fill-rule:nonzero;stroke:none"
             id="path458" /></g><g
           id="g460"
           transform="translate(764.9111,1000.6338)"><path
             d="M 0,0 C -2.021,0 -4.042,0.761 -5.6,2.287 -8.755,5.38 -8.805,10.445 -5.712,13.6 l 40.865,41.689 c 3.093,3.154 8.158,3.205 11.313,0.112 3.155,-3.092 3.205,-8.157 0.113,-11.313 L 5.713,2.4 C 4.147,0.802 2.074,0 0,0"
             style="fill:url(#pattern464);fill-opacity:1;fill-rule:nonzero;stroke:none"
             id="path466" /></g><g
           id="g468"
           transform="translate(117.7808,61.915)"><path
             d="m 0,0 c -2.021,0 -4.042,0.761 -5.6,2.287 -3.155,3.093 -3.205,8.158 -0.112,11.314 l 40.865,41.688 c 3.094,3.154 8.159,3.205 11.313,0.112 3.156,-3.092 3.206,-8.158 0.113,-11.313 L 5.713,2.399 C 4.147,0.802 2.074,0 0,0"
             style="fill:url(#pattern472);fill-opacity:1;fill-rule:nonzero;stroke:none"
             id="path474" /></g><g
           id="g476"
           transform="translate(1110.2607,55.4355)"><path
             d="m 0,0 c -2.021,0 -4.042,0.761 -5.6,2.287 -3.154,3.093 -3.205,8.158 -0.112,11.314 l 40.865,41.688 c 3.093,3.153 8.158,3.205 11.314,0.112 3.154,-3.092 3.205,-8.158 0.112,-11.313 L 5.714,2.399 C 4.147,0.802 2.074,0 0,0"
             style="fill:url(#pattern480);fill-opacity:1;fill-rule:nonzero;stroke:none"
             id="path482" /></g><g
           id="g484"
           transform="translate(970.832,630.2949)"><path
             d="M 0,0 C -2.021,0 -4.042,0.761 -5.6,2.287 -8.755,5.38 -8.805,10.445 -5.712,13.6 l 171.525,174.978 c 3.093,3.154 8.158,3.206 11.314,0.113 3.155,-3.093 3.205,-8.158 0.112,-11.313 L 5.714,2.4 C 4.147,0.802 2.074,0 0,0"
             style="fill:#fdcb01;fill-opacity:1;fill-rule:nonzero;stroke:none"
             id="path486" /></g><g
           id="g488"
           transform="translate(842.0518,661.1846)"><path
             d="M 0,0 -72.549,-74.009"
             style="fill:#f5f5f5;fill-opacity:1;fill-rule:nonzero;stroke:none"
             id="path490" /></g><g
           id="g492"
           transform="translate(769.5024,580.1758)"><path
             d="M 0,0 C -1.768,0 -3.537,0.666 -4.9,2.001 -7.661,4.708 -7.705,9.14 -4.999,11.9 L 67.55,85.909 c 2.706,2.76 7.138,2.805 9.9,0.099 2.76,-2.707 2.804,-7.139 0.098,-9.9 L 5,2.1 C 3.628,0.702 1.815,0 0,0"
             style="fill:#00ebea;fill-opacity:1;fill-rule:nonzero;stroke:none"
             id="path494" /></g><g
           id="g496"
           transform="translate(1584.8037,49.6797)"><path
             d="m 0,0 c -2.021,0 -4.042,0.761 -5.6,2.287 -3.154,3.093 -3.205,8.158 -0.112,11.314 l 90.7,92.526 c 3.093,3.153 8.158,3.206 11.314,0.112 3.155,-3.093 3.205,-8.158 0.112,-11.313 L 5.714,2.399 C 4.147,0.802 2.074,0 0,0"
             style="fill:#fdcb01;fill-opacity:1;fill-rule:nonzero;stroke:none"
             id="path498" /></g><g
           id="g500"
           transform="translate(1622.3896,964.002)"><path
             d="M 0,0 C -2.021,0 -4.043,0.761 -5.601,2.287 -8.756,5.38 -8.806,10.445 -5.713,13.6 l 90.7,92.526 c 3.093,3.155 8.158,3.206 11.314,0.113 3.154,-3.093 3.205,-8.157 0.112,-11.313 L 5.713,2.4 C 4.146,0.802 2.073,0 0,0"
             style="fill:#fdcb01;fill-opacity:1;fill-rule:nonzero;stroke:none"
             id="path502" /></g><g
           id="g504"
           transform="translate(136.832,380.8535)"><path
             d="M 0,0 -62.829,-64.093"
             style="fill:#f5f5f5;fill-opacity:1;fill-rule:nonzero;stroke:none"
             id="path506" /></g><g
           id="g508"
           transform="translate(74.0024,309.7607)"><path
             d="M 0,0 C -1.768,0 -3.537,0.666 -4.9,2.001 -7.661,4.708 -7.705,9.14 -4.998,11.9 l 62.829,64.093 c 2.706,2.762 7.137,2.805 9.899,0.099 2.761,-2.707 2.805,-7.139 0.098,-9.9 L 4.999,2.1 C 3.628,0.701 1.815,0 0,0"
             style="fill:#00ebea;fill-opacity:1;fill-rule:nonzero;stroke:none"
             id="path510" /></g><g
           id="g512"
           transform="translate(1597.4131,374.1582)"><path
             d="M 0,0 -62.829,-64.092"
             style="fill:#f5f5f5;fill-opacity:1;fill-rule:nonzero;stroke:none"
             id="path514" /></g><g
           id="g516"
           transform="translate(1534.584,303.0664)"><path
             d="M 0,0 C -1.769,0 -3.538,0.666 -4.9,2.001 -7.661,4.708 -7.705,9.14 -4.999,11.9 L 57.83,75.992 c 2.708,2.762 7.14,2.804 9.899,0.099 2.761,-2.707 2.805,-7.139 0.099,-9.9 L 4.999,2.1 C 3.628,0.701 1.814,0 0,0"
             style="fill:#00ebea;fill-opacity:1;fill-rule:nonzero;stroke:none"
             id="path518" /></g><g
           id="g520"
           transform="translate(1085.3379,1029.4668)"><path
             d="M 0,0 -62.829,-64.092"
             style="fill:#f5f5f5;fill-opacity:1;fill-rule:nonzero;stroke:none"
             id="path522" /></g><g
           id="g524"
           transform="translate(1022.5088,958.375)"><path
             d="M 0,0 C -1.769,0 -3.538,0.666 -4.9,2.001 -7.661,4.708 -7.705,9.14 -4.999,11.9 L 57.83,75.992 c 2.707,2.761 7.14,2.805 9.899,0.098 2.761,-2.706 2.805,-7.138 0.099,-9.899 L 4.999,2.1 C 3.628,0.702 1.814,0 0,0"
             style="fill:#00ebea;fill-opacity:1;fill-rule:nonzero;stroke:none"
             id="path526" /></g><g
           id="g528"
           transform="translate(795.4146,441.4834)"><path
             d="M 0,0 -62.829,-64.093"
             style="fill:#f5f5f5;fill-opacity:1;fill-rule:nonzero;stroke:none"
             id="path530" /></g><g
           id="g532"
           transform="translate(732.585,370.3906)"><path
             d="M 0,0 C -1.768,0 -3.537,0.666 -4.9,2.001 -7.661,4.708 -7.705,9.14 -4.998,11.9 l 62.829,64.093 c 2.706,2.762 7.137,2.804 9.899,0.099 2.761,-2.707 2.805,-7.139 0.098,-9.9 L 4.999,2.1 C 3.628,0.701 1.815,0 0,0"
             style="fill:#00ebea;fill-opacity:1;fill-rule:nonzero;stroke:none"
             id="path534" /></g><g
           id="g536"
           transform="translate(1652.959,640.938)"><path
             d="M 0,0 C -2.021,0 -4.042,0.761 -5.6,2.287 -8.754,5.38 -8.805,10.445 -5.712,13.6 l 71.66,73.103 c 3.093,3.155 8.157,3.206 11.314,0.113 3.154,-3.093 3.205,-8.158 0.112,-11.313 L 5.714,2.4 C 4.147,0.802 2.074,0 0,0"
             style="fill:#fdcb01;fill-opacity:1;fill-rule:nonzero;stroke:none"
             id="path538" /></g><g
           id="g540"
           transform="translate(1799.6182,41.0703)"><path
             d="m 0,0 c -2.021,0 -4.042,0.761 -5.6,2.287 -3.154,3.093 -3.205,8.158 -0.112,11.314 l 40.865,41.688 c 3.093,3.153 8.159,3.205 11.314,0.112 3.154,-3.092 3.205,-8.158 0.112,-11.313 L 5.714,2.399 C 4.147,0.802 2.074,0 0,0"
             style="fill:url(#pattern544);fill-opacity:1;fill-rule:nonzero;stroke:none"
             id="path546" /></g></g></g></g></svg>
