<?xml version="1.0" encoding="UTF-8" standalone="no"?>
<svg
   xmlns:dc="http://purl.org/dc/elements/1.1/"
   xmlns:cc="http://creativecommons.org/ns#"
   xmlns:rdf="http://www.w3.org/1999/02/22-rdf-syntax-ns#"
   xmlns:svg="http://www.w3.org/2000/svg"
   xmlns="http://www.w3.org/2000/svg"
   viewBox="0 0 5333.3335 5333.3335"
   height="5333.3335"
   width="5333.3335"
   xml:space="preserve"
   id="svg2"
   version="1.1"><metadata
     id="metadata8"><rdf:RDF><cc:Work
         rdf:about=""><dc:format>image/svg+xml</dc:format><dc:type
           rdf:resource="http://purl.org/dc/dcmitype/StillImage" /></cc:Work></rdf:RDF></metadata><defs
     id="defs6"><clipPath
       id="clipPath20"
       clipPathUnits="userSpaceOnUse"><path
         id="path18"
         d="M 0,4000 H 4000 V 0 H 0 Z" /></clipPath></defs><g
     transform="matrix(1.3333333,0,0,-1.3333333,0,5333.3333)"
     id="g10"><path
       id="path12"
       style="fill:#ffffff;fill-opacity:1;fill-rule:nonzero;stroke:none"
       d="M 0,0 H 4000 V 4000 H 0 Z" /><g
       id="g14"><g
         clip-path="url(#clipPath20)"
         id="g16"><g
           transform="translate(2397.1621,3921.1479)"
           id="g22"><path
             id="path24"
             style="fill:#e03f7d;fill-opacity:1;fill-rule:nonzero;stroke:none"
             d="m 0,0 137.146,-52.707 c 11.416,-4.386 19.942,-14.109 22.799,-26.001 l 34.332,-142.857 c 7.197,-29.944 45.605,-38.638 64.994,-14.712 l 92.508,114.147 c 7.7,9.501 19.582,14.605 31.774,13.648 l 146.474,-11.494 c 30.703,-2.409 50.84,31.433 34.077,57.268 L 484.131,60.544 c -3.606,5.557 -5.59,11.882 -5.923,18.308 H 14.283 L -6.092,66.36 C -32.347,50.263 -28.746,11.047 0,0" /></g><g
           transform="translate(3243.8594,3349.8008)"
           id="g26"><path
             id="path28"
             style="fill:#e03f7d;fill-opacity:1;fill-rule:nonzero;stroke:none"
             d="m 0,0 c -3.897,6.007 -4.59,13.548 -1.851,20.164 l 32.905,79.491 c 6.897,16.662 -8.306,34 -25.726,29.339 L -77.781,106.76 c -6.918,-1.851 -14.303,-0.179 -19.749,4.47 l -65.433,55.858 c -13.715,11.708 -34.902,2.608 -35.853,-15.4 l -4.536,-85.913 c -0.377,-7.15 -4.25,-13.658 -10.354,-17.401 L -287.05,3.405 c -15.374,-9.426 -13.265,-32.388 3.568,-38.857 l 80.305,-30.862 c 6.685,-2.569 11.677,-8.262 13.351,-15.225 l 20.102,-83.65 c 4.214,-17.534 26.704,-22.625 38.058,-8.615 l 54.168,66.839 c 4.509,5.563 11.467,8.551 18.605,7.991 l 85.769,-6.73 c 17.978,-1.41 29.769,18.406 19.953,33.533 z" /></g><g
           transform="translate(3498.3164,2847.5273)"
           id="g30"><path
             id="path32"
             style="fill:#e03f7d;fill-opacity:1;fill-rule:nonzero;stroke:none"
             d="M 0,0 C -2.461,3.792 -2.898,8.553 -1.169,12.73 L 19.604,62.914 C 23.958,73.432 14.36,84.378 3.363,81.436 L -49.104,67.398 c -4.368,-1.168 -9.031,-0.112 -12.468,2.823 l -41.309,35.263 c -8.658,7.392 -22.034,1.647 -22.635,-9.722 l -2.863,-54.237 c -0.238,-4.515 -2.683,-8.623 -6.536,-10.986 L -181.218,2.15 c -9.706,-5.951 -8.375,-20.447 2.252,-24.531 l 50.698,-19.483 c 4.22,-1.622 7.372,-5.217 8.428,-9.612 l 12.692,-52.809 c 2.66,-11.069 16.858,-14.283 24.025,-5.439 l 34.197,42.196 c 2.846,3.512 7.238,5.399 11.745,5.045 l 54.147,-4.248 c 11.349,-0.891 18.794,11.619 12.596,21.169 z" /></g><g
           transform="translate(2397.1621,2587.8145)"
           id="g34"><path
             id="path36"
             style="fill:#e03f7d;fill-opacity:1;fill-rule:nonzero;stroke:none"
             d="m 0,0 137.146,-52.706 c 11.416,-4.387 19.942,-14.11 22.799,-26.001 l 34.332,-142.858 c 7.197,-29.944 45.605,-38.638 64.994,-14.712 l 92.508,114.147 c 7.7,9.501 19.582,14.605 31.774,13.648 l 146.474,-11.494 c 30.703,-2.409 50.84,31.433 34.077,57.268 L 484.131,60.544 c -6.657,10.259 -7.84,23.137 -3.162,34.436 l 56.194,135.754 c 11.778,28.455 -14.184,58.065 -43.934,50.106 L 351.295,242.868 c -11.814,-3.161 -24.426,-0.306 -33.727,7.634 l -111.745,95.394 c -23.423,19.996 -59.606,4.453 -61.229,-26.3 l -7.746,-146.721 c -0.645,-12.212 -7.258,-23.326 -17.684,-29.718 L -6.092,66.36 C -32.347,50.263 -28.746,11.047 0,0" /></g><g
           transform="translate(3243.8594,2016.4673)"
           id="g38"><path
             id="path40"
             style="fill:#e03f7d;fill-opacity:1;fill-rule:nonzero;stroke:none"
             d="m 0,0 c -3.897,6.007 -4.59,13.548 -1.851,20.164 l 32.905,79.491 c 6.897,16.662 -8.306,34 -25.726,29.34 L -77.781,106.76 c -6.918,-1.851 -14.303,-0.179 -19.749,4.47 l -65.433,55.858 c -13.715,11.709 -34.902,2.608 -35.853,-15.4 l -4.536,-85.913 c -0.377,-7.15 -4.25,-13.658 -10.354,-17.401 L -287.05,3.405 c -15.374,-9.426 -13.265,-32.388 3.568,-38.857 l 80.305,-30.862 c 6.685,-2.568 11.677,-8.262 13.351,-15.225 l 20.102,-83.65 c 4.214,-17.534 26.704,-22.625 38.058,-8.614 l 54.168,66.838 c 4.509,5.563 11.467,8.552 18.605,7.992 l 85.769,-6.731 c 17.978,-1.41 29.769,18.407 19.953,33.534 z" /></g><g
           transform="translate(3498.3164,1514.1943)"
           id="g42"><path
             id="path44"
             style="fill:#e03f7d;fill-opacity:1;fill-rule:nonzero;stroke:none"
             d="M 0,0 C -2.461,3.792 -2.898,8.553 -1.169,12.729 L 19.604,62.913 C 23.958,73.432 14.36,84.378 3.363,81.436 L -49.104,67.398 c -4.368,-1.169 -9.031,-0.113 -12.468,2.823 l -41.309,35.263 c -8.658,7.392 -22.034,1.646 -22.635,-9.722 l -2.863,-54.238 c -0.238,-4.514 -2.683,-8.623 -6.536,-10.985 l -46.303,-28.39 c -9.706,-5.95 -8.375,-20.446 2.252,-24.53 l 50.698,-19.483 c 4.22,-1.622 7.372,-5.217 8.428,-9.613 l 12.692,-52.809 c 2.66,-11.068 16.858,-14.282 24.025,-5.438 l 34.197,42.196 c 2.846,3.511 7.238,5.398 11.745,5.045 l 54.147,-4.248 c 11.349,-0.891 18.794,11.619 12.596,21.169 z" /></g><g
           transform="translate(2961.2666,1191.7734)"
           id="g46"><path
             id="path48"
             style="fill:#e03f7d;fill-opacity:1;fill-rule:nonzero;stroke:none"
             d="m 0,0 -79.974,123.252 c -6.657,10.259 -7.839,23.137 -3.162,34.435 l 56.195,135.755 c 11.778,28.455 -14.184,58.065 -43.935,50.106 L -212.81,305.575 c -11.813,-3.161 -24.425,-0.305 -33.726,7.635 l -111.745,95.394 c -23.423,19.996 -59.607,4.453 -61.23,-26.3 l -7.746,-146.722 c -0.644,-12.212 -7.258,-23.325 -17.683,-29.717 l -125.256,-76.798 c -26.255,-16.096 -22.655,-55.311 6.092,-66.36 l 137.146,-52.705 c 11.415,-4.388 19.941,-14.11 22.799,-26.002 l 34.332,-142.857 c 7.196,-29.944 45.604,-38.638 64.994,-14.712 l 92.508,114.146 c 7.699,9.501 19.582,14.605 31.773,13.649 L -34.077,-57.268 C -3.374,-59.678 16.763,-25.835 0,0" /></g><g
           transform="translate(3243.8594,683.1348)"
           id="g50"><path
             id="path52"
             style="fill:#e03f7d;fill-opacity:1;fill-rule:nonzero;stroke:none"
             d="m 0,0 c -3.897,6.007 -4.59,13.547 -1.851,20.164 l 32.905,79.49 c 6.897,16.662 -8.306,34 -25.726,29.34 l -83.109,-22.235 c -6.918,-1.851 -14.303,-0.179 -19.749,4.47 l -65.433,55.859 c -13.715,11.708 -34.902,2.607 -35.853,-15.401 l -4.536,-85.913 c -0.377,-7.15 -4.25,-13.658 -10.354,-17.401 L -287.05,3.404 c -15.374,-9.425 -13.265,-32.387 3.568,-38.856 l 80.305,-30.862 c 6.685,-2.569 11.677,-8.263 13.351,-15.225 l 20.102,-83.65 c 4.214,-17.535 26.704,-22.625 38.058,-8.616 l 54.168,66.839 c 4.509,5.564 11.467,8.552 18.605,7.991 l 85.769,-6.729 c 17.978,-1.411 29.769,18.405 19.953,33.532 z" /></g><g
           transform="translate(3498.3164,180.8613)"
           id="g54"><path
             id="path56"
             style="fill:#e03f7d;fill-opacity:1;fill-rule:nonzero;stroke:none"
             d="M 0,0 C -2.461,3.792 -2.898,8.553 -1.169,12.729 L 19.604,62.913 C 23.958,73.432 14.36,84.377 3.363,81.436 L -49.104,67.398 c -4.368,-1.169 -9.031,-0.113 -12.468,2.823 l -41.309,35.263 c -8.658,7.391 -22.034,1.646 -22.635,-9.722 l -2.863,-54.238 c -0.238,-4.514 -2.683,-8.623 -6.536,-10.985 l -46.303,-28.39 c -9.706,-5.95 -8.375,-20.447 2.252,-24.53 l 50.698,-19.484 c 4.22,-1.621 7.372,-5.216 8.428,-9.612 l 12.692,-52.809 c 2.66,-11.069 16.858,-14.282 24.025,-5.439 l 34.197,42.197 c 2.846,3.511 7.238,5.398 11.745,5.045 l 54.147,-4.249 c 11.349,-0.891 18.794,11.62 12.596,21.169 z" /></g><g
           transform="translate(1063.8291,3921.1479)"
           id="g58"><path
             id="path60"
             style="fill:#e03f7d;fill-opacity:1;fill-rule:nonzero;stroke:none"
             d="m 0,0 137.146,-52.707 c 11.416,-4.386 19.941,-14.109 22.799,-26.001 l 34.332,-142.857 c 7.197,-29.944 45.605,-38.638 64.995,-14.712 l 92.507,114.147 c 7.7,9.501 19.582,14.605 31.774,13.648 l 146.474,-11.494 c 30.702,-2.409 50.84,31.433 34.077,57.268 L 484.13,60.544 c -3.605,5.557 -5.589,11.882 -5.922,18.308 H 14.283 L -6.092,66.36 C -32.347,50.263 -28.747,11.047 0,0" /></g><g
           transform="translate(1910.5269,3349.8008)"
           id="g62"><path
             id="path64"
             style="fill:#e03f7d;fill-opacity:1;fill-rule:nonzero;stroke:none"
             d="m 0,0 c -3.898,6.007 -4.59,13.548 -1.852,20.164 l 32.905,79.491 c 6.897,16.662 -8.305,34 -25.726,29.339 L -77.782,106.76 c -6.918,-1.851 -14.303,-0.179 -19.749,4.47 l -65.432,55.858 c -13.716,11.708 -34.903,2.608 -35.853,-15.4 l -4.536,-85.913 c -0.378,-7.15 -4.25,-13.658 -10.355,-17.401 L -287.051,3.405 c -15.373,-9.426 -13.265,-32.388 3.568,-38.857 l 80.306,-30.862 c 6.684,-2.569 11.677,-8.262 13.35,-15.225 l 20.103,-83.65 c 4.214,-17.534 26.704,-22.625 38.057,-8.615 l 54.168,66.839 c 4.509,5.563 11.466,8.551 18.605,7.991 l 85.769,-6.73 c 17.978,-1.41 29.769,18.406 19.954,33.533 z" /></g><g
           transform="translate(2164.9824,2847.5273)"
           id="g66"><path
             id="path68"
             style="fill:#e03f7d;fill-opacity:1;fill-rule:nonzero;stroke:none"
             d="M 0,0 C -2.461,3.792 -2.897,8.553 -1.168,12.73 L 19.604,62.914 C 23.959,73.432 14.361,84.378 3.363,81.436 L -49.104,67.398 c -4.367,-1.168 -9.03,-0.112 -12.468,2.823 l -41.308,35.263 c -8.659,7.392 -22.034,1.647 -22.635,-9.722 l -2.863,-54.237 c -0.238,-4.515 -2.683,-8.623 -6.537,-10.986 L -181.217,2.15 c -9.706,-5.951 -8.375,-20.447 2.252,-24.531 l 50.697,-19.483 c 4.221,-1.622 7.372,-5.217 8.428,-9.612 l 12.692,-52.809 c 2.66,-11.069 16.859,-14.283 24.026,-5.439 l 34.196,42.196 c 2.847,3.512 7.239,5.399 11.746,5.045 l 54.147,-4.248 c 11.349,-0.891 18.793,11.619 12.596,21.169 z" /></g><g
           transform="translate(1063.8291,2587.8145)"
           id="g70"><path
             id="path72"
             style="fill:#e03f7d;fill-opacity:1;fill-rule:nonzero;stroke:none"
             d="m 0,0 137.146,-52.706 c 11.416,-4.387 19.941,-14.11 22.799,-26.001 l 34.332,-142.858 c 7.197,-29.944 45.605,-38.638 64.995,-14.712 l 92.507,114.147 c 7.7,9.501 19.582,14.605 31.774,13.648 l 146.474,-11.494 c 30.702,-2.409 50.84,31.433 34.077,57.268 L 484.13,60.544 c -6.656,10.259 -7.838,23.137 -3.161,34.436 l 56.194,135.754 c 11.779,28.455 -14.184,58.065 -43.934,50.106 L 351.295,242.868 c -11.814,-3.161 -24.426,-0.306 -33.727,7.634 l -111.745,95.394 c -23.423,19.996 -59.606,4.453 -61.23,-26.3 l -7.746,-146.721 c -0.644,-12.212 -7.257,-23.326 -17.683,-29.718 L -6.092,66.36 C -32.347,50.263 -28.747,11.047 0,0" /></g><g
           transform="translate(1910.5269,2016.4673)"
           id="g74"><path
             id="path76"
             style="fill:#e03f7d;fill-opacity:1;fill-rule:nonzero;stroke:none"
             d="m 0,0 c -3.898,6.007 -4.59,13.548 -1.852,20.164 l 32.905,79.491 c 6.897,16.662 -8.305,34 -25.726,29.34 L -77.782,106.76 c -6.918,-1.851 -14.303,-0.179 -19.749,4.47 l -65.432,55.858 c -13.716,11.709 -34.903,2.608 -35.853,-15.4 l -4.536,-85.913 c -0.378,-7.15 -4.25,-13.658 -10.355,-17.401 L -287.051,3.405 c -15.373,-9.426 -13.265,-32.388 3.568,-38.857 l 80.306,-30.862 c 6.684,-2.568 11.677,-8.262 13.35,-15.225 l 20.103,-83.65 c 4.214,-17.534 26.704,-22.625 38.057,-8.614 l 54.168,66.838 c 4.509,5.563 11.466,8.552 18.605,7.992 l 85.769,-6.731 c 17.978,-1.41 29.769,18.407 19.954,33.534 z" /></g><g
           transform="translate(2164.9824,1514.1943)"
           id="g78"><path
             id="path80"
             style="fill:#e03f7d;fill-opacity:1;fill-rule:nonzero;stroke:none"
             d="M 0,0 C -2.461,3.792 -2.897,8.553 -1.168,12.729 L 19.604,62.913 C 23.959,73.432 14.361,84.378 3.363,81.436 L -49.104,67.398 c -4.367,-1.169 -9.03,-0.113 -12.468,2.823 l -41.308,35.263 c -8.659,7.392 -22.034,1.646 -22.635,-9.722 l -2.863,-54.238 c -0.238,-4.514 -2.683,-8.623 -6.537,-10.985 l -46.302,-28.39 c -9.706,-5.95 -8.375,-20.446 2.252,-24.53 l 50.697,-19.483 c 4.221,-1.622 7.372,-5.217 8.428,-9.613 l 12.692,-52.809 c 2.66,-11.068 16.859,-14.282 24.026,-5.438 l 34.196,42.196 c 2.847,3.511 7.239,5.398 11.746,5.045 l 54.147,-4.248 c 11.349,-0.891 18.793,11.619 12.596,21.169 z" /></g><g
           transform="translate(1627.9331,1191.7734)"
           id="g82"><path
             id="path84"
             style="fill:#e03f7d;fill-opacity:1;fill-rule:nonzero;stroke:none"
             d="m 0,0 -79.974,123.252 c -6.656,10.259 -7.839,23.137 -3.161,34.435 l 56.194,135.755 c 11.779,28.455 -14.184,58.065 -43.934,50.106 l -141.934,-37.973 c -11.814,-3.161 -24.426,-0.305 -33.727,7.635 l -111.745,95.394 c -23.423,19.996 -59.606,4.453 -61.23,-26.3 l -7.746,-146.722 c -0.644,-12.212 -7.257,-23.325 -17.683,-29.717 l -125.256,-76.798 c -26.255,-16.096 -22.655,-55.311 6.092,-66.36 l 137.146,-52.705 c 11.416,-4.388 19.941,-14.11 22.799,-26.002 l 34.332,-142.857 c 7.197,-29.944 45.605,-38.638 64.995,-14.712 l 92.507,114.146 c 7.7,9.501 19.582,14.605 31.774,13.649 L -34.077,-57.268 C -3.375,-59.678 16.763,-25.835 0,0" /></g><g
           transform="translate(1910.5269,683.1348)"
           id="g86"><path
             id="path88"
             style="fill:#e03f7d;fill-opacity:1;fill-rule:nonzero;stroke:none"
             d="m 0,0 c -3.898,6.007 -4.59,13.547 -1.852,20.164 l 32.905,79.49 c 6.897,16.662 -8.305,34 -25.726,29.34 l -83.109,-22.235 c -6.918,-1.851 -14.303,-0.179 -19.749,4.47 l -65.432,55.859 c -13.716,11.708 -34.903,2.607 -35.853,-15.401 l -4.536,-85.913 c -0.378,-7.15 -4.25,-13.658 -10.355,-17.401 L -287.051,3.404 c -15.373,-9.425 -13.265,-32.387 3.568,-38.856 l 80.306,-30.862 c 6.684,-2.569 11.677,-8.263 13.35,-15.225 l 20.103,-83.65 c 4.214,-17.535 26.704,-22.625 38.057,-8.616 l 54.168,66.839 c 4.509,5.564 11.466,8.552 18.605,7.991 l 85.769,-6.729 c 17.978,-1.411 29.769,18.405 19.954,33.532 z" /></g><g
           transform="translate(2164.9824,180.8613)"
           id="g90"><path
             id="path92"
             style="fill:#e03f7d;fill-opacity:1;fill-rule:nonzero;stroke:none"
             d="M 0,0 C -2.461,3.792 -2.897,8.553 -1.168,12.729 L 19.604,62.913 C 23.959,73.432 14.361,84.377 3.363,81.436 L -49.104,67.398 c -4.367,-1.169 -9.03,-0.113 -12.468,2.823 l -41.308,35.263 c -8.659,7.391 -22.034,1.646 -22.635,-9.722 l -2.863,-54.238 c -0.238,-4.514 -2.683,-8.623 -6.537,-10.985 l -46.302,-28.39 c -9.706,-5.95 -8.375,-20.447 2.252,-24.53 l 50.697,-19.484 c 4.221,-1.621 7.372,-5.216 8.428,-9.612 l 12.692,-52.809 c 2.66,-11.069 16.859,-14.282 24.026,-5.439 l 34.196,42.197 c 2.847,3.511 7.239,5.398 11.746,5.045 l 54.147,-4.249 c 11.349,-0.891 18.793,11.62 12.596,21.169 z" /></g><g
           transform="translate(114.0483,3812.6655)"
           id="g94"><path
             id="path96"
             style="fill:#e03f7d;fill-opacity:1;fill-rule:nonzero;stroke:none"
             d="m 0,0 146.475,-11.494 c 30.702,-2.409 50.839,31.433 34.076,57.268 l -79.973,123.253 c -3.606,5.556 -5.59,11.882 -5.923,18.307 h -208.703 v -302.502 l 82.274,101.52 C -24.074,-4.147 -12.192,0.957 0,0" /></g><g
           transform="translate(577.1934,3349.8008)"
           id="g98"><path
             id="path100"
             style="fill:#e03f7d;fill-opacity:1;fill-rule:nonzero;stroke:none"
             d="m 0,0 c -3.898,6.007 -4.59,13.548 -1.852,20.164 l 32.905,79.491 c 6.897,16.662 -8.305,34 -25.725,29.339 l -83.11,-22.234 c -6.918,-1.851 -14.303,-0.179 -19.749,4.47 l -65.432,55.858 c -13.716,11.708 -34.903,2.608 -35.853,-15.4 l -4.536,-85.913 c -0.377,-7.15 -4.25,-13.658 -10.355,-17.401 L -287.051,3.405 c -15.373,-9.426 -13.265,-32.388 3.568,-38.857 l 80.306,-30.862 c 6.684,-2.569 11.677,-8.262 13.35,-15.225 l 20.103,-83.65 c 4.214,-17.534 26.704,-22.625 38.058,-8.615 l 54.167,66.839 c 4.509,5.563 11.466,8.551 18.605,7.991 l 85.769,-6.73 c 17.978,-1.41 29.769,18.406 19.954,33.533 z" /></g><g
           transform="translate(831.6494,2847.5273)"
           id="g102"><path
             id="path104"
             style="fill:#e03f7d;fill-opacity:1;fill-rule:nonzero;stroke:none"
             d="M 0,0 C -2.461,3.792 -2.898,8.553 -1.169,12.73 L 19.604,62.914 C 23.958,73.432 14.361,84.378 3.363,81.436 L -49.104,67.398 c -4.368,-1.168 -9.03,-0.112 -12.468,2.823 l -41.308,35.263 c -8.659,7.392 -22.035,1.647 -22.635,-9.722 l -2.863,-54.237 c -0.238,-4.515 -2.683,-8.623 -6.537,-10.986 L -181.218,2.15 c -9.705,-5.951 -8.374,-20.447 2.252,-24.531 l 50.698,-19.483 c 4.22,-1.622 7.372,-5.217 8.428,-9.612 l 12.692,-52.809 c 2.66,-11.069 16.858,-14.283 24.026,-5.439 l 34.196,42.196 c 2.847,3.512 7.239,5.399 11.746,5.045 l 54.146,-4.248 c 11.35,-0.891 18.794,11.619 12.597,21.169 z" /></g><g
           transform="translate(114.0483,2479.332)"
           id="g106"><path
             id="path108"
             style="fill:#e03f7d;fill-opacity:1;fill-rule:nonzero;stroke:none"
             d="m 0,0 146.475,-11.493 c 30.702,-2.409 50.839,31.432 34.076,57.267 l -79.973,123.253 c -6.657,10.259 -7.839,23.136 -3.162,34.436 l 56.194,135.754 c 11.779,28.455 -14.184,58.064 -43.934,50.105 L -32.257,351.35 c -11.814,-3.161 -24.427,-0.306 -33.728,7.634 l -48.063,41.031 v -515.183 l 82.274,101.52 C -24.074,-4.147 -12.192,0.957 0,0" /></g><g
           transform="translate(577.1934,2016.4673)"
           id="g110"><path
             id="path112"
             style="fill:#e03f7d;fill-opacity:1;fill-rule:nonzero;stroke:none"
             d="m 0,0 c -3.898,6.007 -4.59,13.548 -1.852,20.164 l 32.905,79.491 c 6.897,16.662 -8.305,34 -25.725,29.34 l -83.11,-22.235 c -6.918,-1.851 -14.303,-0.179 -19.749,4.47 l -65.432,55.858 c -13.716,11.709 -34.903,2.608 -35.853,-15.4 l -4.536,-85.913 c -0.377,-7.15 -4.25,-13.658 -10.355,-17.401 L -287.051,3.405 c -15.373,-9.426 -13.265,-32.388 3.568,-38.857 l 80.306,-30.862 c 6.684,-2.568 11.677,-8.262 13.35,-15.225 l 20.103,-83.65 c 4.214,-17.534 26.704,-22.625 38.058,-8.614 l 54.167,66.838 c 4.509,5.563 11.466,8.552 18.605,7.992 l 85.769,-6.731 c 17.978,-1.41 29.769,18.407 19.954,33.534 z" /></g><g
           transform="translate(831.6494,1514.1943)"
           id="g114"><path
             id="path116"
             style="fill:#e03f7d;fill-opacity:1;fill-rule:nonzero;stroke:none"
             d="M 0,0 C -2.461,3.792 -2.898,8.553 -1.169,12.729 L 19.604,62.913 C 23.958,73.432 14.361,84.378 3.363,81.436 L -49.104,67.398 c -4.368,-1.169 -9.03,-0.113 -12.468,2.823 l -41.308,35.263 c -8.659,7.392 -22.035,1.646 -22.635,-9.722 l -2.863,-54.238 c -0.238,-4.514 -2.683,-8.623 -6.537,-10.985 l -46.303,-28.39 c -9.705,-5.95 -8.374,-20.446 2.252,-24.53 l 50.698,-19.483 c 4.22,-1.622 7.372,-5.217 8.428,-9.613 l 12.692,-52.809 c 2.66,-11.068 16.858,-14.282 24.026,-5.438 l 34.196,42.196 c 2.847,3.511 7.239,5.398 11.746,5.045 l 54.146,-4.248 c 11.35,-0.891 18.794,11.619 12.597,21.169 z" /></g><g
           transform="translate(114.0483,1145.999)"
           id="g118"><path
             id="path120"
             style="fill:#e03f7d;fill-opacity:1;fill-rule:nonzero;stroke:none"
             d="m 0,0 146.475,-11.493 c 30.702,-2.41 50.839,31.432 34.076,57.267 l -79.973,123.252 c -6.657,10.259 -7.839,23.137 -3.162,34.436 l 56.194,135.755 c 11.779,28.455 -14.184,58.064 -43.934,50.105 L -32.257,351.35 c -11.814,-3.162 -24.427,-0.306 -33.728,7.634 l -48.063,41.031 v -515.184 l 82.274,101.521 C -24.074,-4.147 -12.192,0.956 0,0" /></g><g
           transform="translate(577.1934,683.1348)"
           id="g122"><path
             id="path124"
             style="fill:#e03f7d;fill-opacity:1;fill-rule:nonzero;stroke:none"
             d="m 0,0 c -3.898,6.007 -4.59,13.547 -1.852,20.164 l 32.905,79.49 c 6.897,16.662 -8.305,34 -25.725,29.34 l -83.11,-22.235 c -6.918,-1.851 -14.303,-0.179 -19.749,4.47 l -65.432,55.859 c -13.716,11.708 -34.903,2.607 -35.853,-15.401 l -4.536,-85.913 c -0.377,-7.15 -4.25,-13.658 -10.355,-17.401 L -287.051,3.404 c -15.373,-9.425 -13.265,-32.387 3.568,-38.856 l 80.306,-30.862 c 6.684,-2.569 11.677,-8.263 13.35,-15.225 l 20.103,-83.65 c 4.214,-17.535 26.704,-22.625 38.058,-8.616 l 54.167,66.839 c 4.509,5.564 11.466,8.552 18.605,7.991 l 85.769,-6.729 c 17.978,-1.411 29.769,18.405 19.954,33.532 z" /></g><g
           transform="translate(831.6494,180.8613)"
           id="g126"><path
             id="path128"
             style="fill:#e03f7d;fill-opacity:1;fill-rule:nonzero;stroke:none"
             d="M 0,0 C -2.461,3.792 -2.898,8.553 -1.169,12.729 L 19.604,62.913 C 23.958,73.432 14.361,84.377 3.363,81.436 L -49.104,67.398 c -4.368,-1.169 -9.03,-0.113 -12.468,2.823 l -41.308,35.263 c -8.659,7.391 -22.035,1.646 -22.635,-9.722 l -2.863,-54.238 c -0.238,-4.514 -2.683,-8.623 -6.537,-10.985 l -46.303,-28.39 c -9.705,-5.95 -8.374,-20.447 2.252,-24.53 l 50.698,-19.484 c 4.22,-1.621 7.372,-5.216 8.428,-9.612 l 12.692,-52.809 c 2.66,-11.069 16.858,-14.282 24.026,-5.439 l 34.196,42.197 c 2.847,3.511 7.239,5.398 11.746,5.045 l 54.146,-4.249 c 11.35,-0.891 18.794,11.62 12.597,21.169 z" /></g><g
           transform="translate(3730.4961,3921.1479)"
           id="g130"><path
             id="path132"
             style="fill:#e03f7d;fill-opacity:1;fill-rule:nonzero;stroke:none"
             d="m 0,0 137.146,-52.707 c 11.415,-4.386 19.941,-14.109 22.798,-26.001 l 34.333,-142.857 c 7.196,-29.944 45.604,-38.638 64.994,-14.712 l 10.233,12.626 V 78.852 H 14.282 L -6.093,66.36 C -32.348,50.263 -28.747,11.047 0,0" /></g><g
           transform="translate(2878.1309,16.1279)"
           id="g134"><path
             id="path136"
             style="fill:#e03f7d;fill-opacity:1;fill-rule:nonzero;stroke:none"
             d="M 0,0 56.194,135.755 C 67.973,164.21 42.011,193.819 12.26,185.859 l -141.934,-37.971 c -11.813,-3.161 -24.426,-0.306 -33.726,7.634 l -111.746,95.394 c -23.422,19.995 -59.606,4.453 -61.229,-26.301 l -7.746,-146.72 c -0.645,-12.212 -7.258,-23.326 -17.684,-29.718 L -466.686,-16.128 H -2.761 C -3.042,-10.689 -2.144,-5.179 0,0" /></g><g
           transform="translate(1544.7979,16.1279)"
           id="g138"><path
             id="path140"
             style="fill:#e03f7d;fill-opacity:1;fill-rule:nonzero;stroke:none"
             d="M 0,0 56.194,135.755 C 67.973,164.21 42.01,193.819 12.26,185.859 l -141.933,-37.971 c -11.814,-3.161 -24.427,-0.306 -33.728,7.634 l -111.745,95.394 c -23.422,19.995 -59.606,4.453 -61.229,-26.301 l -7.747,-146.72 c -0.644,-12.212 -7.257,-23.326 -17.683,-29.718 L -466.686,-16.128 H -2.761 C -3.042,-10.689 -2.144,-5.179 0,0" /></g><g
           transform="translate(211.4644,16.1279)"
           id="g142"><path
             id="path144"
             style="fill:#e03f7d;fill-opacity:1;fill-rule:nonzero;stroke:none"
             d="M 0,0 56.194,135.755 C 67.973,164.21 42.01,193.819 12.26,185.859 l -141.933,-37.971 c -11.814,-3.161 -24.427,-0.306 -33.728,7.634 l -48.063,41.031 V -16.128 H -2.761 C -3.042,-10.689 -2.144,-5.179 0,0" /></g><g
           transform="translate(4000,212.6807)"
           id="g146"><path
             id="path148"
             style="fill:#e03f7d;fill-opacity:1;fill-rule:nonzero;stroke:none"
             d="m 0,0 -63.682,54.363 c -23.422,19.995 -59.605,4.453 -61.229,-26.301 l -7.746,-146.72 c -0.645,-12.212 -7.257,-23.325 -17.683,-29.718 l -104.882,-64.305 H 0 Z" /></g><g
           transform="translate(3875.0889,2907.4102)"
           id="g150"><path
             id="path152"
             style="fill:#e03f7d;fill-opacity:1;fill-rule:nonzero;stroke:none"
             d="m 0,0 -7.746,-146.721 c -0.645,-12.212 -7.257,-23.325 -17.683,-29.717 l -125.257,-76.798 c -26.254,-16.097 -22.654,-55.312 6.093,-66.36 l 137.146,-52.706 c 11.415,-4.387 19.941,-14.11 22.799,-26.001 l 34.333,-142.858 c 7.195,-29.943 45.603,-38.638 64.994,-14.712 l 10.232,12.626 V -28.063 L 61.229,26.301 C 37.808,46.296 1.624,30.753 0,0" /></g><g
           transform="translate(3875.0889,1574.0771)"
           id="g154"><path
             id="path156"
             style="fill:#e03f7d;fill-opacity:1;fill-rule:nonzero;stroke:none"
             d="m 0,0 -7.746,-146.722 c -0.645,-12.212 -7.257,-23.325 -17.683,-29.716 l -125.257,-76.798 c -26.254,-16.097 -22.654,-55.312 6.093,-66.361 l 137.146,-52.705 c 11.415,-4.387 19.941,-14.11 22.799,-26.002 l 34.333,-142.857 c 7.195,-29.943 45.603,-38.638 64.994,-14.712 l 10.232,12.626 V -28.063 L 61.229,26.3 C 37.808,46.296 1.624,30.753 0,0" /></g><path
           id="path158"
           style="fill:#000000;fill-opacity:1;fill-rule:nonzero;stroke:none"
           d="M 4000,0 H 0 v 4000 h 4000 z" /><g
           transform="translate(2397.1621,3921.1479)"
           id="g160"><path
             id="path162"
             style="fill:#e03f7d;fill-opacity:1;fill-rule:nonzero;stroke:none"
             d="m 0,0 137.146,-52.707 c 11.416,-4.386 19.942,-14.109 22.799,-26.001 l 34.332,-142.857 c 7.197,-29.944 45.605,-38.638 64.994,-14.712 l 92.508,114.147 c 7.7,9.501 19.582,14.605 31.774,13.648 l 146.474,-11.494 c 30.703,-2.409 50.84,31.433 34.077,57.268 L 484.131,60.544 c -3.606,5.557 -5.59,11.882 -5.923,18.308 H 14.283 L -6.092,66.36 C -32.347,50.263 -28.746,11.047 0,0" /></g><g
           transform="translate(3243.8594,3349.8008)"
           id="g164"><path
             id="path166"
             style="fill:#e03f7d;fill-opacity:1;fill-rule:nonzero;stroke:none"
             d="m 0,0 c -3.897,6.007 -4.59,13.548 -1.851,20.164 l 32.905,79.491 c 6.897,16.662 -8.306,34 -25.726,29.339 L -77.781,106.76 c -6.918,-1.851 -14.303,-0.179 -19.749,4.47 l -65.433,55.858 c -13.715,11.708 -34.902,2.608 -35.853,-15.4 l -4.536,-85.913 c -0.377,-7.15 -4.25,-13.658 -10.354,-17.401 L -287.05,3.405 c -15.374,-9.426 -13.265,-32.388 3.568,-38.857 l 80.305,-30.862 c 6.685,-2.569 11.677,-8.262 13.351,-15.225 l 20.102,-83.65 c 4.214,-17.534 26.704,-22.625 38.058,-8.615 l 54.168,66.839 c 4.509,5.563 11.467,8.551 18.605,7.991 l 85.769,-6.73 c 17.978,-1.41 29.769,18.406 19.953,33.533 z" /></g><g
           transform="translate(3498.3164,2847.5273)"
           id="g168"><path
             id="path170"
             style="fill:#e03f7d;fill-opacity:1;fill-rule:nonzero;stroke:none"
             d="M 0,0 C -2.461,3.792 -2.898,8.553 -1.169,12.73 L 19.604,62.914 C 23.958,73.432 14.36,84.378 3.363,81.436 L -49.104,67.398 c -4.368,-1.168 -9.031,-0.112 -12.468,2.823 l -41.309,35.263 c -8.658,7.392 -22.034,1.647 -22.635,-9.722 l -2.863,-54.237 c -0.238,-4.515 -2.683,-8.623 -6.536,-10.986 L -181.218,2.15 c -9.706,-5.951 -8.375,-20.447 2.252,-24.531 l 50.698,-19.483 c 4.22,-1.622 7.372,-5.217 8.428,-9.612 l 12.692,-52.809 c 2.66,-11.069 16.858,-14.283 24.025,-5.439 l 34.197,42.196 c 2.846,3.512 7.238,5.399 11.745,5.045 l 54.147,-4.248 c 11.349,-0.891 18.794,11.619 12.596,21.169 z" /></g><g
           transform="translate(2397.1621,2587.8145)"
           id="g172"><path
             id="path174"
             style="fill:#e03f7d;fill-opacity:1;fill-rule:nonzero;stroke:none"
             d="m 0,0 137.146,-52.706 c 11.416,-4.387 19.942,-14.11 22.799,-26.001 l 34.332,-142.858 c 7.197,-29.944 45.605,-38.638 64.994,-14.712 l 92.508,114.147 c 7.7,9.501 19.582,14.605 31.774,13.648 l 146.474,-11.494 c 30.703,-2.409 50.84,31.433 34.077,57.268 L 484.131,60.544 c -6.657,10.259 -7.84,23.137 -3.162,34.436 l 56.194,135.754 c 11.778,28.455 -14.184,58.065 -43.934,50.106 L 351.295,242.868 c -11.814,-3.161 -24.426,-0.306 -33.727,7.634 l -111.745,95.394 c -23.423,19.996 -59.606,4.453 -61.229,-26.3 l -7.746,-146.721 c -0.645,-12.212 -7.258,-23.326 -17.684,-29.718 L -6.092,66.36 C -32.347,50.263 -28.746,11.047 0,0" /></g><g
           transform="translate(3243.8594,2016.4673)"
           id="g176"><path
             id="path178"
             style="fill:#e03f7d;fill-opacity:1;fill-rule:nonzero;stroke:none"
             d="m 0,0 c -3.897,6.007 -4.59,13.548 -1.851,20.164 l 32.905,79.491 c 6.897,16.662 -8.306,34 -25.726,29.34 L -77.781,106.76 c -6.918,-1.851 -14.303,-0.179 -19.749,4.47 l -65.433,55.858 c -13.715,11.709 -34.902,2.608 -35.853,-15.4 l -4.536,-85.913 c -0.377,-7.15 -4.25,-13.658 -10.354,-17.401 L -287.05,3.405 c -15.374,-9.426 -13.265,-32.388 3.568,-38.857 l 80.305,-30.862 c 6.685,-2.568 11.677,-8.262 13.351,-15.225 l 20.102,-83.65 c 4.214,-17.534 26.704,-22.625 38.058,-8.614 l 54.168,66.838 c 4.509,5.563 11.467,8.552 18.605,7.992 l 85.769,-6.731 c 17.978,-1.41 29.769,18.407 19.953,33.534 z" /></g><g
           transform="translate(3498.3164,1514.1943)"
           id="g180"><path
             id="path182"
             style="fill:#e03f7d;fill-opacity:1;fill-rule:nonzero;stroke:none"
             d="M 0,0 C -2.461,3.792 -2.898,8.553 -1.169,12.729 L 19.604,62.913 C 23.958,73.432 14.36,84.378 3.363,81.436 L -49.104,67.398 c -4.368,-1.169 -9.031,-0.113 -12.468,2.823 l -41.309,35.263 c -8.658,7.392 -22.034,1.646 -22.635,-9.722 l -2.863,-54.238 c -0.238,-4.514 -2.683,-8.623 -6.536,-10.985 l -46.303,-28.39 c -9.706,-5.95 -8.375,-20.446 2.252,-24.53 l 50.698,-19.483 c 4.22,-1.622 7.372,-5.217 8.428,-9.613 l 12.692,-52.809 c 2.66,-11.068 16.858,-14.282 24.025,-5.438 l 34.197,42.196 c 2.846,3.511 7.238,5.398 11.745,5.045 l 54.147,-4.248 c 11.349,-0.891 18.794,11.619 12.596,21.169 z" /></g><g
           transform="translate(2961.2666,1191.7734)"
           id="g184"><path
             id="path186"
             style="fill:#e03f7d;fill-opacity:1;fill-rule:nonzero;stroke:none"
             d="m 0,0 -79.974,123.252 c -6.657,10.259 -7.839,23.137 -3.162,34.435 l 56.195,135.755 c 11.778,28.455 -14.184,58.065 -43.935,50.106 L -212.81,305.575 c -11.813,-3.161 -24.425,-0.305 -33.726,7.635 l -111.745,95.394 c -23.423,19.996 -59.607,4.453 -61.23,-26.3 l -7.746,-146.722 c -0.644,-12.212 -7.258,-23.325 -17.683,-29.717 l -125.256,-76.798 c -26.255,-16.096 -22.655,-55.311 6.092,-66.36 l 137.146,-52.705 c 11.415,-4.388 19.941,-14.11 22.799,-26.002 l 34.332,-142.857 c 7.196,-29.944 45.604,-38.638 64.994,-14.712 l 92.508,114.146 c 7.699,9.501 19.582,14.605 31.773,13.649 L -34.077,-57.268 C -3.374,-59.678 16.763,-25.835 0,0" /></g><g
           transform="translate(3243.8594,683.1348)"
           id="g188"><path
             id="path190"
             style="fill:#e03f7d;fill-opacity:1;fill-rule:nonzero;stroke:none"
             d="m 0,0 c -3.897,6.007 -4.59,13.547 -1.851,20.164 l 32.905,79.49 c 6.897,16.662 -8.306,34 -25.726,29.34 l -83.109,-22.235 c -6.918,-1.851 -14.303,-0.179 -19.749,4.47 l -65.433,55.859 c -13.715,11.708 -34.902,2.607 -35.853,-15.401 l -4.536,-85.913 c -0.377,-7.15 -4.25,-13.658 -10.354,-17.401 L -287.05,3.404 c -15.374,-9.425 -13.265,-32.387 3.568,-38.856 l 80.305,-30.862 c 6.685,-2.569 11.677,-8.263 13.351,-15.225 l 20.102,-83.65 c 4.214,-17.535 26.704,-22.625 38.058,-8.616 l 54.168,66.839 c 4.509,5.564 11.467,8.552 18.605,7.991 l 85.769,-6.729 c 17.978,-1.411 29.769,18.405 19.953,33.532 z" /></g><g
           transform="translate(3498.3164,180.8613)"
           id="g192"><path
             id="path194"
             style="fill:#e03f7d;fill-opacity:1;fill-rule:nonzero;stroke:none"
             d="M 0,0 C -2.461,3.792 -2.898,8.553 -1.169,12.729 L 19.604,62.913 C 23.958,73.432 14.36,84.377 3.363,81.436 L -49.104,67.398 c -4.368,-1.169 -9.031,-0.113 -12.468,2.823 l -41.309,35.263 c -8.658,7.391 -22.034,1.646 -22.635,-9.722 l -2.863,-54.238 c -0.238,-4.514 -2.683,-8.623 -6.536,-10.985 l -46.303,-28.39 c -9.706,-5.95 -8.375,-20.447 2.252,-24.53 l 50.698,-19.484 c 4.22,-1.621 7.372,-5.216 8.428,-9.612 l 12.692,-52.809 c 2.66,-11.069 16.858,-14.282 24.025,-5.439 l 34.197,42.197 c 2.846,3.511 7.238,5.398 11.745,5.045 l 54.147,-4.249 c 11.349,-0.891 18.794,11.62 12.596,21.169 z" /></g><g
           transform="translate(1063.8291,3921.1479)"
           id="g196"><path
             id="path198"
             style="fill:#e03f7d;fill-opacity:1;fill-rule:nonzero;stroke:none"
             d="m 0,0 137.146,-52.707 c 11.416,-4.386 19.941,-14.109 22.799,-26.001 l 34.332,-142.857 c 7.197,-29.944 45.605,-38.638 64.995,-14.712 l 92.507,114.147 c 7.7,9.501 19.582,14.605 31.774,13.648 l 146.474,-11.494 c 30.702,-2.409 50.84,31.433 34.077,57.268 L 484.13,60.544 c -3.605,5.557 -5.589,11.882 -5.922,18.308 H 14.283 L -6.092,66.36 C -32.347,50.263 -28.747,11.047 0,0" /></g><g
           transform="translate(1910.5269,3349.8008)"
           id="g200"><path
             id="path202"
             style="fill:#e03f7d;fill-opacity:1;fill-rule:nonzero;stroke:none"
             d="m 0,0 c -3.898,6.007 -4.59,13.548 -1.852,20.164 l 32.905,79.491 c 6.897,16.662 -8.305,34 -25.726,29.339 L -77.782,106.76 c -6.918,-1.851 -14.303,-0.179 -19.749,4.47 l -65.432,55.858 c -13.716,11.708 -34.903,2.608 -35.853,-15.4 l -4.536,-85.913 c -0.378,-7.15 -4.25,-13.658 -10.355,-17.401 L -287.051,3.405 c -15.373,-9.426 -13.265,-32.388 3.568,-38.857 l 80.306,-30.862 c 6.684,-2.569 11.677,-8.262 13.35,-15.225 l 20.103,-83.65 c 4.214,-17.534 26.704,-22.625 38.057,-8.615 l 54.168,66.839 c 4.509,5.563 11.466,8.551 18.605,7.991 l 85.769,-6.73 c 17.978,-1.41 29.769,18.406 19.954,33.533 z" /></g><g
           transform="translate(2164.9824,2847.5273)"
           id="g204"><path
             id="path206"
             style="fill:#e03f7d;fill-opacity:1;fill-rule:nonzero;stroke:none"
             d="M 0,0 C -2.461,3.792 -2.897,8.553 -1.168,12.73 L 19.604,62.914 C 23.959,73.432 14.361,84.378 3.363,81.436 L -49.104,67.398 c -4.367,-1.168 -9.03,-0.112 -12.468,2.823 l -41.308,35.263 c -8.659,7.392 -22.034,1.647 -22.635,-9.722 l -2.863,-54.237 c -0.238,-4.515 -2.683,-8.623 -6.537,-10.986 L -181.217,2.15 c -9.706,-5.951 -8.375,-20.447 2.252,-24.531 l 50.697,-19.483 c 4.221,-1.622 7.372,-5.217 8.428,-9.612 l 12.692,-52.809 c 2.66,-11.069 16.859,-14.283 24.026,-5.439 l 34.196,42.196 c 2.847,3.512 7.239,5.399 11.746,5.045 l 54.147,-4.248 c 11.349,-0.891 18.793,11.619 12.596,21.169 z" /></g><g
           transform="translate(1063.8291,2587.8145)"
           id="g208"><path
             id="path210"
             style="fill:#e03f7d;fill-opacity:1;fill-rule:nonzero;stroke:none"
             d="m 0,0 137.146,-52.706 c 11.416,-4.387 19.941,-14.11 22.799,-26.001 l 34.332,-142.858 c 7.197,-29.944 45.605,-38.638 64.995,-14.712 l 92.507,114.147 c 7.7,9.501 19.582,14.605 31.774,13.648 l 146.474,-11.494 c 30.702,-2.409 50.84,31.433 34.077,57.268 L 484.13,60.544 c -6.656,10.259 -7.838,23.137 -3.161,34.436 l 56.194,135.754 c 11.779,28.455 -14.184,58.065 -43.934,50.106 L 351.295,242.868 c -11.814,-3.161 -24.426,-0.306 -33.727,7.634 l -111.745,95.394 c -23.423,19.996 -59.606,4.453 -61.23,-26.3 l -7.746,-146.721 c -0.644,-12.212 -7.257,-23.326 -17.683,-29.718 L -6.092,66.36 C -32.347,50.263 -28.747,11.047 0,0" /></g><g
           transform="translate(1910.5269,2016.4673)"
           id="g212"><path
             id="path214"
             style="fill:#e03f7d;fill-opacity:1;fill-rule:nonzero;stroke:none"
             d="m 0,0 c -3.898,6.007 -4.59,13.548 -1.852,20.164 l 32.905,79.491 c 6.897,16.662 -8.305,34 -25.726,29.34 L -77.782,106.76 c -6.918,-1.851 -14.303,-0.179 -19.749,4.47 l -65.432,55.858 c -13.716,11.709 -34.903,2.608 -35.853,-15.4 l -4.536,-85.913 c -0.378,-7.15 -4.25,-13.658 -10.355,-17.401 L -287.051,3.405 c -15.373,-9.426 -13.265,-32.388 3.568,-38.857 l 80.306,-30.862 c 6.684,-2.568 11.677,-8.262 13.35,-15.225 l 20.103,-83.65 c 4.214,-17.534 26.704,-22.625 38.057,-8.614 l 54.168,66.838 c 4.509,5.563 11.466,8.552 18.605,7.992 l 85.769,-6.731 c 17.978,-1.41 29.769,18.407 19.954,33.534 z" /></g><g
           transform="translate(2164.9824,1514.1943)"
           id="g216"><path
             id="path218"
             style="fill:#e03f7d;fill-opacity:1;fill-rule:nonzero;stroke:none"
             d="M 0,0 C -2.461,3.792 -2.897,8.553 -1.168,12.729 L 19.604,62.913 C 23.959,73.432 14.361,84.378 3.363,81.436 L -49.104,67.398 c -4.367,-1.169 -9.03,-0.113 -12.468,2.823 l -41.308,35.263 c -8.659,7.392 -22.034,1.646 -22.635,-9.722 l -2.863,-54.238 c -0.238,-4.514 -2.683,-8.623 -6.537,-10.985 l -46.302,-28.39 c -9.706,-5.95 -8.375,-20.446 2.252,-24.53 l 50.697,-19.483 c 4.221,-1.622 7.372,-5.217 8.428,-9.613 l 12.692,-52.809 c 2.66,-11.068 16.859,-14.282 24.026,-5.438 l 34.196,42.196 c 2.847,3.511 7.239,5.398 11.746,5.045 l 54.147,-4.248 c 11.349,-0.891 18.793,11.619 12.596,21.169 z" /></g><g
           transform="translate(1627.9331,1191.7734)"
           id="g220"><path
             id="path222"
             style="fill:#e03f7d;fill-opacity:1;fill-rule:nonzero;stroke:none"
             d="m 0,0 -79.974,123.252 c -6.656,10.259 -7.839,23.137 -3.161,34.435 l 56.194,135.755 c 11.779,28.455 -14.184,58.065 -43.934,50.106 l -141.934,-37.973 c -11.814,-3.161 -24.426,-0.305 -33.727,7.635 l -111.745,95.394 c -23.423,19.996 -59.606,4.453 -61.23,-26.3 l -7.746,-146.722 c -0.644,-12.212 -7.257,-23.325 -17.683,-29.717 l -125.256,-76.798 c -26.255,-16.096 -22.655,-55.311 6.092,-66.36 l 137.146,-52.705 c 11.416,-4.388 19.941,-14.11 22.799,-26.002 l 34.332,-142.857 c 7.197,-29.944 45.605,-38.638 64.995,-14.712 l 92.507,114.146 c 7.7,9.501 19.582,14.605 31.774,13.649 L -34.077,-57.268 C -3.375,-59.678 16.763,-25.835 0,0" /></g><g
           transform="translate(1910.5269,683.1348)"
           id="g224"><path
             id="path226"
             style="fill:#e03f7d;fill-opacity:1;fill-rule:nonzero;stroke:none"
             d="m 0,0 c -3.898,6.007 -4.59,13.547 -1.852,20.164 l 32.905,79.49 c 6.897,16.662 -8.305,34 -25.726,29.34 l -83.109,-22.235 c -6.918,-1.851 -14.303,-0.179 -19.749,4.47 l -65.432,55.859 c -13.716,11.708 -34.903,2.607 -35.853,-15.401 l -4.536,-85.913 c -0.378,-7.15 -4.25,-13.658 -10.355,-17.401 L -287.051,3.404 c -15.373,-9.425 -13.265,-32.387 3.568,-38.856 l 80.306,-30.862 c 6.684,-2.569 11.677,-8.263 13.35,-15.225 l 20.103,-83.65 c 4.214,-17.535 26.704,-22.625 38.057,-8.616 l 54.168,66.839 c 4.509,5.564 11.466,8.552 18.605,7.991 l 85.769,-6.729 c 17.978,-1.411 29.769,18.405 19.954,33.532 z" /></g><g
           transform="translate(2164.9824,180.8613)"
           id="g228"><path
             id="path230"
             style="fill:#e03f7d;fill-opacity:1;fill-rule:nonzero;stroke:none"
             d="M 0,0 C -2.461,3.792 -2.897,8.553 -1.168,12.729 L 19.604,62.913 C 23.959,73.432 14.361,84.377 3.363,81.436 L -49.104,67.398 c -4.367,-1.169 -9.03,-0.113 -12.468,2.823 l -41.308,35.263 c -8.659,7.391 -22.034,1.646 -22.635,-9.722 l -2.863,-54.238 c -0.238,-4.514 -2.683,-8.623 -6.537,-10.985 l -46.302,-28.39 c -9.706,-5.95 -8.375,-20.447 2.252,-24.53 l 50.697,-19.484 c 4.221,-1.621 7.372,-5.216 8.428,-9.612 l 12.692,-52.809 c 2.66,-11.069 16.859,-14.282 24.026,-5.439 l 34.196,42.197 c 2.847,3.511 7.239,5.398 11.746,5.045 l 54.147,-4.249 c 11.349,-0.891 18.793,11.62 12.596,21.169 z" /></g><g
           transform="translate(114.0483,3812.6655)"
           id="g232"><path
             id="path234"
             style="fill:#e03f7d;fill-opacity:1;fill-rule:nonzero;stroke:none"
             d="m 0,0 146.475,-11.494 c 30.702,-2.409 50.839,31.433 34.076,57.268 l -79.973,123.253 c -3.606,5.556 -5.59,11.882 -5.923,18.307 h -208.703 v -302.502 l 82.274,101.52 C -24.074,-4.147 -12.192,0.957 0,0" /></g><g
           transform="translate(577.1934,3349.8008)"
           id="g236"><path
             id="path238"
             style="fill:#e03f7d;fill-opacity:1;fill-rule:nonzero;stroke:none"
             d="m 0,0 c -3.898,6.007 -4.59,13.548 -1.852,20.164 l 32.905,79.491 c 6.897,16.662 -8.305,34 -25.725,29.339 l -83.11,-22.234 c -6.918,-1.851 -14.303,-0.179 -19.749,4.47 l -65.432,55.858 c -13.716,11.708 -34.903,2.608 -35.853,-15.4 l -4.536,-85.913 c -0.377,-7.15 -4.25,-13.658 -10.355,-17.401 L -287.051,3.405 c -15.373,-9.426 -13.265,-32.388 3.568,-38.857 l 80.306,-30.862 c 6.684,-2.569 11.677,-8.262 13.35,-15.225 l 20.103,-83.65 c 4.214,-17.534 26.704,-22.625 38.058,-8.615 l 54.167,66.839 c 4.509,5.563 11.466,8.551 18.605,7.991 l 85.769,-6.73 c 17.978,-1.41 29.769,18.406 19.954,33.533 z" /></g><g
           transform="translate(831.6494,2847.5273)"
           id="g240"><path
             id="path242"
             style="fill:#e03f7d;fill-opacity:1;fill-rule:nonzero;stroke:none"
             d="M 0,0 C -2.461,3.792 -2.898,8.553 -1.169,12.73 L 19.604,62.914 C 23.958,73.432 14.361,84.378 3.363,81.436 L -49.104,67.398 c -4.368,-1.168 -9.03,-0.112 -12.468,2.823 l -41.308,35.263 c -8.659,7.392 -22.035,1.647 -22.635,-9.722 l -2.863,-54.237 c -0.238,-4.515 -2.683,-8.623 -6.537,-10.986 L -181.218,2.15 c -9.705,-5.951 -8.374,-20.447 2.252,-24.531 l 50.698,-19.483 c 4.22,-1.622 7.372,-5.217 8.428,-9.612 l 12.692,-52.809 c 2.66,-11.069 16.858,-14.283 24.026,-5.439 l 34.196,42.196 c 2.847,3.512 7.239,5.399 11.746,5.045 l 54.146,-4.248 c 11.35,-0.891 18.794,11.619 12.597,21.169 z" /></g><g
           transform="translate(114.0483,2479.332)"
           id="g244"><path
             id="path246"
             style="fill:#e03f7d;fill-opacity:1;fill-rule:nonzero;stroke:none"
             d="m 0,0 146.475,-11.493 c 30.702,-2.409 50.839,31.432 34.076,57.267 l -79.973,123.253 c -6.657,10.259 -7.839,23.136 -3.162,34.436 l 56.194,135.754 c 11.779,28.455 -14.184,58.064 -43.934,50.105 L -32.257,351.35 c -11.814,-3.161 -24.427,-0.306 -33.728,7.634 l -48.063,41.031 v -515.183 l 82.274,101.52 C -24.074,-4.147 -12.192,0.957 0,0" /></g><g
           transform="translate(577.1934,2016.4673)"
           id="g248"><path
             id="path250"
             style="fill:#e03f7d;fill-opacity:1;fill-rule:nonzero;stroke:none"
             d="m 0,0 c -3.898,6.007 -4.59,13.548 -1.852,20.164 l 32.905,79.491 c 6.897,16.662 -8.305,34 -25.725,29.34 l -83.11,-22.235 c -6.918,-1.851 -14.303,-0.179 -19.749,4.47 l -65.432,55.858 c -13.716,11.709 -34.903,2.608 -35.853,-15.4 l -4.536,-85.913 c -0.377,-7.15 -4.25,-13.658 -10.355,-17.401 L -287.051,3.405 c -15.373,-9.426 -13.265,-32.388 3.568,-38.857 l 80.306,-30.862 c 6.684,-2.568 11.677,-8.262 13.35,-15.225 l 20.103,-83.65 c 4.214,-17.534 26.704,-22.625 38.058,-8.614 l 54.167,66.838 c 4.509,5.563 11.466,8.552 18.605,7.992 l 85.769,-6.731 c 17.978,-1.41 29.769,18.407 19.954,33.534 z" /></g><g
           transform="translate(831.6494,1514.1943)"
           id="g252"><path
             id="path254"
             style="fill:#e03f7d;fill-opacity:1;fill-rule:nonzero;stroke:none"
             d="M 0,0 C -2.461,3.792 -2.898,8.553 -1.169,12.729 L 19.604,62.913 C 23.958,73.432 14.361,84.378 3.363,81.436 L -49.104,67.398 c -4.368,-1.169 -9.03,-0.113 -12.468,2.823 l -41.308,35.263 c -8.659,7.392 -22.035,1.646 -22.635,-9.722 l -2.863,-54.238 c -0.238,-4.514 -2.683,-8.623 -6.537,-10.985 l -46.303,-28.39 c -9.705,-5.95 -8.374,-20.446 2.252,-24.53 l 50.698,-19.483 c 4.22,-1.622 7.372,-5.217 8.428,-9.613 l 12.692,-52.809 c 2.66,-11.068 16.858,-14.282 24.026,-5.438 l 34.196,42.196 c 2.847,3.511 7.239,5.398 11.746,5.045 l 54.146,-4.248 c 11.35,-0.891 18.794,11.619 12.597,21.169 z" /></g><g
           transform="translate(114.0483,1145.999)"
           id="g256"><path
             id="path258"
             style="fill:#e03f7d;fill-opacity:1;fill-rule:nonzero;stroke:none"
             d="m 0,0 146.475,-11.493 c 30.702,-2.41 50.839,31.432 34.076,57.267 l -79.973,123.252 c -6.657,10.259 -7.839,23.137 -3.162,34.436 l 56.194,135.755 c 11.779,28.455 -14.184,58.064 -43.934,50.105 L -32.257,351.35 c -11.814,-3.162 -24.427,-0.306 -33.728,7.634 l -48.063,41.031 v -515.184 l 82.274,101.521 C -24.074,-4.147 -12.192,0.956 0,0" /></g><g
           transform="translate(577.1934,683.1348)"
           id="g260"><path
             id="path262"
             style="fill:#e03f7d;fill-opacity:1;fill-rule:nonzero;stroke:none"
             d="m 0,0 c -3.898,6.007 -4.59,13.547 -1.852,20.164 l 32.905,79.49 c 6.897,16.662 -8.305,34 -25.725,29.34 l -83.11,-22.235 c -6.918,-1.851 -14.303,-0.179 -19.749,4.47 l -65.432,55.859 c -13.716,11.708 -34.903,2.607 -35.853,-15.401 l -4.536,-85.913 c -0.377,-7.15 -4.25,-13.658 -10.355,-17.401 L -287.051,3.404 c -15.373,-9.425 -13.265,-32.387 3.568,-38.856 l 80.306,-30.862 c 6.684,-2.569 11.677,-8.263 13.35,-15.225 l 20.103,-83.65 c 4.214,-17.535 26.704,-22.625 38.058,-8.616 l 54.167,66.839 c 4.509,5.564 11.466,8.552 18.605,7.991 l 85.769,-6.729 c 17.978,-1.411 29.769,18.405 19.954,33.532 z" /></g><g
           transform="translate(831.6494,180.8613)"
           id="g264"><path
             id="path266"
             style="fill:#e03f7d;fill-opacity:1;fill-rule:nonzero;stroke:none"
             d="M 0,0 C -2.461,3.792 -2.898,8.553 -1.169,12.729 L 19.604,62.913 C 23.958,73.432 14.361,84.377 3.363,81.436 L -49.104,67.398 c -4.368,-1.169 -9.03,-0.113 -12.468,2.823 l -41.308,35.263 c -8.659,7.391 -22.035,1.646 -22.635,-9.722 l -2.863,-54.238 c -0.238,-4.514 -2.683,-8.623 -6.537,-10.985 l -46.303,-28.39 c -9.705,-5.95 -8.374,-20.447 2.252,-24.53 l 50.698,-19.484 c 4.22,-1.621 7.372,-5.216 8.428,-9.612 l 12.692,-52.809 c 2.66,-11.069 16.858,-14.282 24.026,-5.439 l 34.196,42.197 c 2.847,3.511 7.239,5.398 11.746,5.045 l 54.146,-4.249 c 11.35,-0.891 18.794,11.62 12.597,21.169 z" /></g><g
           transform="translate(3730.4961,3921.1479)"
           id="g268"><path
             id="path270"
             style="fill:#e03f7d;fill-opacity:1;fill-rule:nonzero;stroke:none"
             d="m 0,0 137.146,-52.707 c 11.415,-4.386 19.941,-14.109 22.798,-26.001 l 34.333,-142.857 c 7.196,-29.944 45.604,-38.638 64.994,-14.712 l 10.233,12.626 V 78.852 H 14.282 L -6.093,66.36 C -32.348,50.263 -28.747,11.047 0,0" /></g><g
           transform="translate(2878.1309,16.1279)"
           id="g272"><path
             id="path274"
             style="fill:#e03f7d;fill-opacity:1;fill-rule:nonzero;stroke:none"
             d="M 0,0 56.194,135.755 C 67.973,164.21 42.011,193.819 12.26,185.859 l -141.934,-37.971 c -11.813,-3.161 -24.426,-0.306 -33.726,7.634 l -111.746,95.394 c -23.422,19.995 -59.606,4.453 -61.229,-26.301 l -7.746,-146.72 c -0.645,-12.212 -7.258,-23.326 -17.684,-29.718 L -466.686,-16.128 H -2.761 C -3.042,-10.689 -2.144,-5.179 0,0" /></g><g
           transform="translate(1544.7979,16.1279)"
           id="g276"><path
             id="path278"
             style="fill:#e03f7d;fill-opacity:1;fill-rule:nonzero;stroke:none"
             d="M 0,0 56.194,135.755 C 67.973,164.21 42.01,193.819 12.26,185.859 l -141.933,-37.971 c -11.814,-3.161 -24.427,-0.306 -33.728,7.634 l -111.745,95.394 c -23.422,19.995 -59.606,4.453 -61.229,-26.301 l -7.747,-146.72 c -0.644,-12.212 -7.257,-23.326 -17.683,-29.718 L -466.686,-16.128 H -2.761 C -3.042,-10.689 -2.144,-5.179 0,0" /></g><g
           transform="translate(211.4644,16.1279)"
           id="g280"><path
             id="path282"
             style="fill:#e03f7d;fill-opacity:1;fill-rule:nonzero;stroke:none"
             d="M 0,0 56.194,135.755 C 67.973,164.21 42.01,193.819 12.26,185.859 l -141.933,-37.971 c -11.814,-3.161 -24.427,-0.306 -33.728,7.634 l -48.063,41.031 V -16.128 H -2.761 C -3.042,-10.689 -2.144,-5.179 0,0" /></g><g
           transform="translate(4000,212.6807)"
           id="g284"><path
             id="path286"
             style="fill:#e03f7d;fill-opacity:1;fill-rule:nonzero;stroke:none"
             d="m 0,0 -63.682,54.363 c -23.422,19.995 -59.605,4.453 -61.229,-26.301 l -7.746,-146.72 c -0.645,-12.212 -7.257,-23.325 -17.683,-29.718 l -104.882,-64.305 H 0 Z" /></g><g
           transform="translate(3875.0889,2907.4102)"
           id="g288"><path
             id="path290"
             style="fill:#e03f7d;fill-opacity:1;fill-rule:nonzero;stroke:none"
             d="m 0,0 -7.746,-146.721 c -0.645,-12.212 -7.257,-23.325 -17.683,-29.717 l -125.257,-76.798 c -26.254,-16.097 -22.654,-55.312 6.093,-66.36 l 137.146,-52.706 c 11.415,-4.387 19.941,-14.11 22.799,-26.001 l 34.333,-142.858 c 7.195,-29.943 45.603,-38.638 64.994,-14.712 l 10.232,12.626 V -28.063 L 61.229,26.301 C 37.808,46.296 1.624,30.753 0,0" /></g><g
           transform="translate(3875.0889,1574.0771)"
           id="g292"><path
             id="path294"
             style="fill:#e03f7d;fill-opacity:1;fill-rule:nonzero;stroke:none"
             d="m 0,0 -7.746,-146.722 c -0.645,-12.212 -7.257,-23.325 -17.683,-29.716 l -125.257,-76.798 c -26.254,-16.097 -22.654,-55.312 6.093,-66.361 l 137.146,-52.705 c 11.415,-4.387 19.941,-14.11 22.799,-26.002 l 34.333,-142.857 c 7.195,-29.943 45.603,-38.638 64.994,-14.712 l 10.232,12.626 V -28.063 L 61.229,26.3 C 37.808,46.296 1.624,30.753 0,0" /></g></g></g></g></svg>