<?xml version="1.0" encoding="UTF-8" standalone="no"?>
<!-- http://code.google.com/p/vector-playing-cards/ -->

<svg
   width="167.0869141pt"
   height="242.6669922pt"
   viewBox="0 0 167.0869141 242.6669922"
   xml:space="preserve"
   id="svg2"
   version="1.1"
   inkscape:version="1.2.1 (9c6d41e410, 2022-07-14)"
   sodipodi:docname="spades_1.svg"
   inkscape:export-filename="/home/byron/art/cards/final/ace_of_spades2.png"
   inkscape:export-xdpi="215.44792"
   inkscape:export-ydpi="215.44792"
   xmlns:inkscape="http://www.inkscape.org/namespaces/inkscape"
   xmlns:sodipodi="http://sodipodi.sourceforge.net/DTD/sodipodi-0.dtd"
   xmlns="http://www.w3.org/2000/svg"
   xmlns:svg="http://www.w3.org/2000/svg"
   xmlns:rdf="http://www.w3.org/1999/02/22-rdf-syntax-ns#"
   xmlns:cc="http://creativecommons.org/ns#"
   xmlns:dc="http://purl.org/dc/elements/1.1/"><metadata
   id="metadata43"><rdf:RDF><cc:Work
       rdf:about=""><dc:format>image/svg+xml</dc:format><dc:type
         rdf:resource="http://purl.org/dc/dcmitype/StillImage" /><dc:title /></cc:Work></rdf:RDF></metadata><defs
   id="defs41"><linearGradient
     id="linearGradient3773"><stop
       style="stop-color:#000000;stop-opacity:1;"
       offset="0"
       id="stop3775" /><stop
       style="stop-color:#000000;stop-opacity:0.64885497;"
       offset="1"
       id="stop3777" /></linearGradient><linearGradient
     id="linearGradient3051"><stop
       style="stop-color:#000000;stop-opacity:1;"
       offset="0"
       id="stop3053" /><stop
       style="stop-color:#000000;stop-opacity:0.64885497;"
       offset="1"
       id="stop3055" /></linearGradient><linearGradient
     id="linearGradient3784-4"><stop
       style="stop-color:#ffffff;stop-opacity:0.4351145;"
       offset="0"
       id="stop3786-8" /><stop
       style="stop-color:#000000;stop-opacity:0;"
       offset="1"
       id="stop3788-6" /></linearGradient><linearGradient
     id="linearGradient3784-4-5"><stop
       style="stop-color:#ffffff;stop-opacity:0.48854962;"
       offset="0"
       id="stop3786-8-0" /><stop
       style="stop-color:#000000;stop-opacity:0;"
       offset="1"
       id="stop3788-6-3" /></linearGradient><linearGradient
     id="linearGradient3784-4-1"><stop
       style="stop-color:#ffffff;stop-opacity:0.23664123;"
       offset="0"
       id="stop3786-8-03" /><stop
       style="stop-color:#000000;stop-opacity:0;"
       offset="1"
       id="stop3788-6-6" /></linearGradient></defs><sodipodi:namedview
   pagecolor="#ffffff"
   bordercolor="#666666"
   borderopacity="1"
   objecttolerance="10"
   gridtolerance="10"
   guidetolerance="10"
   inkscape:pageopacity="0"
   inkscape:pageshadow="2"
   inkscape:window-width="3440"
   inkscape:window-height="1351"
   id="namedview39"
   showgrid="false"
   inkscape:zoom="1.7208768"
   inkscape:cx="95.590806"
   inkscape:cy="70.022445"
   inkscape:window-x="-9"
   inkscape:window-y="-9"
   inkscape:window-maximized="1"
   inkscape:current-layer="g3886"
   inkscape:showpageshadow="2"
   inkscape:pagecheckerboard="0"
   inkscape:deskcolor="#d1d1d1"
   inkscape:document-units="pt" />
	<g
   id="Layer_x0020_1"
   style="fill-rule:nonzero;clip-rule:nonzero;stroke:#000000;stroke-miterlimit:4;">
		<path
   style="fill:#FFFFFF;stroke-width:0.5;"
   d="M166.8369141,235.5478516c0,3.7773438-3.0869141,6.8691406-6.8710938,6.8691406H7.1108398c-3.7749023,0-6.8608398-3.0917969-6.8608398-6.8691406V7.1201172C0.25,3.3427734,3.3359375,0.25,7.1108398,0.25h152.8549805    c3.7841797,0,6.8710938,3.0927734,6.8710938,6.8701172v228.4277344z"
   id="path5" />
		<g
   style="stroke:none;"
   id="g7">
			<g
   id="g9">
				
			</g>
			
		</g>
		<g
   id="g15">
			
		</g>
		<g
   id="g19">
			
		</g>
		<g
   style="stroke:none;"
   id="g23">
			<g
   id="g25">
				
			</g>
			
		</g>
		<g
   style="stroke:none;"
   id="g31">
			<g
   id="g33">
				
			</g>
			
		</g>
	</g>
<text
   xml:space="preserve"
   style="font-style:normal;font-weight:normal;line-height:0%;font-family:'Bitstream Vera Sans';letter-spacing:0px;word-spacing:0px;fill:#000000;fill-opacity:1;stroke:none"
   x="6.2456665"
   y="28.013288"
   id="text3788"><tspan
     sodipodi:role="line"
     id="tspan3790"
     x="6.2456665"
     y="28.013288"
     style="font-style:normal;font-variant:normal;font-weight:normal;font-stretch:normal;font-size:32px;line-height:1.25;font-family:Arial;-inkscape-font-specification:Arial">A</tspan></text>

<text
   xml:space="preserve"
   style="font-style:normal;font-weight:normal;line-height:0%;font-family:'Bitstream Vera Sans';letter-spacing:0px;word-spacing:0px;fill:#000000;fill-opacity:1;stroke:none"
   x="-160.9081"
   y="-215.09668"
   id="text3788-2"
   transform="scale(-1)"><tspan
     sodipodi:role="line"
     id="tspan3790-3"
     x="-160.9081"
     y="-215.09668"
     style="font-style:normal;font-variant:normal;font-weight:normal;font-stretch:normal;font-size:32px;line-height:1.25;font-family:Arial;-inkscape-font-specification:Arial">A</tspan></text>

<g
   transform="matrix(0.19861112,0,0,0.19861112,10.08352,15.428943)"
   id="g3886"><g
     style="fill:#000000;fill-opacity:1"
     id="layer1-7-1"
     transform="matrix(31.754082,0,0,29.033123,371.73772,526.70948)"><path
       sodipodi:nodetypes="cccccccccc"
       style="fill:#000000;fill-opacity:1"
       inkscape:connector-curvature="0"
       d="M 7.989,3.103 C 7.747,-0.954 0.242,-8.59 0,-10.5 c -0.242,1.909 -7.747,9.545 -7.989,13.603 -0.169,2.868 1.695,4.057 3.39,4.057 1.8351685,-0.021581 3.3508701,-2.8006944 3.873,-3.341 0.242,0.716 -1.603,6.682 -2.179,6.682 l 5.811,0 C 2.33,10.501 0.485,4.535 0.727,3.819 1.1841472,4.3152961 2.5241276,7.0768295 4.601,7.16 6.295,7.159 8.158,5.971 7.989,3.103 z"
       id="sl-5" /></g><path
     inkscape:connector-curvature="0"
     id="rect3865"
     d="m 19.993242,106.65013 0,854.28121 677.156298,0 0,-854.28121 -677.156298,0 z M 371.74324,221.86888 c 7.6845,55.45326 245.9718,277.15012 253.6563,394.93746 5.3664,83.267 -53.7711,117.7523 -107.5625,117.7813 -65.9492,-2.4147 -108.515,-82.591 -123.0313,-97 -7.6845,20.7877 50.8972,194 69.1875,194 l -184.5,0 c 18.2904,0 76.872,-173.2123 69.1875,-194 -16.5797,15.6867 -64.7259,96.3734 -123,97 -53.8231,0 -112.9914,-34.5143 -107.625,-117.7813 7.6845,-117.81637 246.003,-339.51323 253.6875,-394.93746 z"
     style="fill:#fffeff;fill-opacity:1;fill-rule:nonzero;stroke:none" /></g><g
   transform="matrix(1.5085945,0,0,1.3793253,16.929041,45.066155)"
   id="layer1-7"><path
     id="sl"
     d="M 7.989,3.103 C 7.747,-0.954 0.242,-8.59 0,-10.5 c -0.242,1.909 -7.747,9.545 -7.989,13.603 -0.169,2.868 1.695,4.057 3.39,4.057 1.8351685,-0.021581 3.3508701,-2.8006944 3.873,-3.341 0.242,0.716 -1.603,6.682 -2.179,6.682 l 5.811,0 C 2.33,10.501 0.485,4.535 0.727,3.819 1.1841472,4.3152961 2.5241276,7.0768295 4.601,7.16 6.295,7.159 8.158,5.971 7.989,3.103 z"
     inkscape:connector-curvature="0"
     style="fill:#000000"
     sodipodi:nodetypes="cccccccccc" /></g><g
   transform="matrix(-1.5085945,0,0,-1.3793253,150.22472,198.04381)"
   id="layer1-7-8"><path
     id="sl-0"
     d="M 7.989,3.103 C 7.747,-0.954 0.242,-8.59 0,-10.5 c -0.242,1.909 -7.747,9.545 -7.989,13.603 -0.169,2.868 1.695,4.057 3.39,4.057 1.8351685,-0.021581 3.3508701,-2.8006944 3.873,-3.341 0.242,0.716 -1.603,6.682 -2.179,6.682 l 5.811,0 C 2.33,10.501 0.485,4.535 0.727,3.819 1.1841472,4.3152961 2.5241276,7.0768295 4.601,7.16 6.295,7.159 8.158,5.971 7.989,3.103 z"
     inkscape:connector-curvature="0"
     style="fill:#000000"
     sodipodi:nodetypes="cccccccccc" /></g></svg>
